<mxfile host="app.diagrams.net" agent="Mozilla/5.0 (Macintosh; Intel Mac OS X 10.15; rv:139.0) Gecko/20100101 Firefox/139.0" version="27.1.4">
  <diagram id="C5RBs43oDa-KdzZeNtuy" name="Page-1">
    <mxGraphModel dx="1355" dy="2971" grid="1" gridSize="10" guides="1" tooltips="1" connect="1" arrows="1" fold="1" page="1" pageScale="1" pageWidth="827" pageHeight="1169" math="0" shadow="0">
      <root>
        <mxCell id="WIyWlLk6GJQsqaUBKTNV-0" />
        <mxCell id="WIyWlLk6GJQsqaUBKTNV-1" parent="WIyWlLk6GJQsqaUBKTNV-0" />
        <mxCell id="8jjc2kqJS15EgWJWvcIl-381" value="AMPA" style="swimlane;html=1;childLayout=stackLayout;resizeParent=1;resizeParentMax=0;horizontal=0;startSize=20;horizontalStack=0;" parent="WIyWlLk6GJQsqaUBKTNV-1" vertex="1">
          <mxGeometry x="90" y="740" width="2020" height="1660" as="geometry" />
        </mxCell>
        <mxCell id="8jjc2kqJS15EgWJWvcIl-382" value="Demandeur" style="swimlane;html=1;startSize=20;horizontal=0;" parent="8jjc2kqJS15EgWJWvcIl-381" vertex="1">
          <mxGeometry x="20" width="2000" height="880" as="geometry" />
        </mxCell>
        <mxCell id="8jjc2kqJS15EgWJWvcIl-390" value="Ingénieur sûreté" style="swimlane;html=1;startSize=20;horizontal=0;" parent="8jjc2kqJS15EgWJWvcIl-381" vertex="1">
          <mxGeometry x="20" y="880" width="2000" height="120" as="geometry" />
        </mxCell>
        <mxCell id="8jjc2kqJS15EgWJWvcIl-392" value="Chef installation" style="swimlane;html=1;startSize=20;horizontal=0;" parent="8jjc2kqJS15EgWJWvcIl-381" vertex="1">
          <mxGeometry x="20" y="1000" width="2000" height="110" as="geometry" />
        </mxCell>
        <mxCell id="8jjc2kqJS15EgWJWvcIl-413" value="Plateeau technique" style="swimlane;html=1;startSize=20;horizontal=0;" parent="8jjc2kqJS15EgWJWvcIl-381" vertex="1">
          <mxGeometry x="20" y="1110" width="2000" height="190" as="geometry" />
        </mxCell>
        <mxCell id="8jjc2kqJS15EgWJWvcIl-431" value="Expert" style="swimlane;html=1;startSize=20;horizontal=0;" parent="8jjc2kqJS15EgWJWvcIl-381" vertex="1">
          <mxGeometry x="20" y="1300" width="2000" height="120" as="geometry" />
        </mxCell>
        <mxCell id="8jjc2kqJS15EgWJWvcIl-432" value="Intervenant" style="swimlane;html=1;startSize=20;horizontal=0;" parent="8jjc2kqJS15EgWJWvcIl-381" vertex="1">
          <mxGeometry x="20" y="1420" width="2000" height="120" as="geometry" />
        </mxCell>
        <mxCell id="8jjc2kqJS15EgWJWvcIl-433" value="Chef de quart" style="swimlane;html=1;startSize=20;horizontal=0;" parent="8jjc2kqJS15EgWJWvcIl-381" vertex="1">
          <mxGeometry x="20" y="1540" width="2000" height="120" as="geometry" />
        </mxCell>
        <mxCell id="8jjc2kqJS15EgWJWvcIl-466" value="&lt;div&gt;Si un des équipements choisi est EIP, EDR, ESP ou ESPN,&lt;/div&gt;&lt;div&gt;ou si l&#39;impact inclut &quot;Contrôle périodique&quot;, &quot;EIP1 RANG 1 OU 2&quot;, &quot;EIP RANG 3 ou 4&quot; ou &quot;Doc. référentiel sûreté&quot;,&lt;/div&gt;&lt;div&gt;alors le domaine Sûreté est automatiquement coché et &#39;&quot;Aucun&quot; ne peut pas être choisi&lt;/div&gt;" style="text;html=1;align=left;verticalAlign=middle;whiteSpace=wrap;rounded=0;" parent="WIyWlLk6GJQsqaUBKTNV-1" vertex="1">
          <mxGeometry x="790" y="480" width="350" height="20" as="geometry" />
        </mxCell>
        <mxCell id="8jjc2kqJS15EgWJWvcIl-383" value="" style="edgeStyle=orthogonalEdgeStyle;rounded=0;orthogonalLoop=1;jettySize=auto;html=1;exitX=1;exitY=0.5;exitDx=0;exitDy=0;" parent="WIyWlLk6GJQsqaUBKTNV-1" source="8jjc2kqJS15EgWJWvcIl-384" target="8jjc2kqJS15EgWJWvcIl-386" edge="1">
          <mxGeometry relative="1" as="geometry">
            <Array as="points" />
          </mxGeometry>
        </mxCell>
        <mxCell id="8jjc2kqJS15EgWJWvcIl-384" value="" style="ellipse;whiteSpace=wrap;html=1;" parent="WIyWlLk6GJQsqaUBKTNV-1" vertex="1">
          <mxGeometry x="-40" y="-1090" width="40" height="40" as="geometry" />
        </mxCell>
        <mxCell id="8jjc2kqJS15EgWJWvcIl-385" value="" style="edgeStyle=orthogonalEdgeStyle;rounded=0;orthogonalLoop=1;jettySize=auto;html=1;" parent="WIyWlLk6GJQsqaUBKTNV-1" source="8jjc2kqJS15EgWJWvcIl-386" target="8jjc2kqJS15EgWJWvcIl-387" edge="1">
          <mxGeometry relative="1" as="geometry" />
        </mxCell>
        <mxCell id="ZmzfmCcFbRjJiwDWbrTt-29" value="Valider" style="edgeLabel;html=1;align=center;verticalAlign=middle;resizable=0;points=[];" vertex="1" connectable="0" parent="8jjc2kqJS15EgWJWvcIl-385">
          <mxGeometry x="-0.3887" relative="1" as="geometry">
            <mxPoint as="offset" />
          </mxGeometry>
        </mxCell>
        <mxCell id="ZmzfmCcFbRjJiwDWbrTt-28" style="edgeStyle=orthogonalEdgeStyle;rounded=0;orthogonalLoop=1;jettySize=auto;html=1;exitX=1;exitY=0.5;exitDx=0;exitDy=0;entryX=0;entryY=0.5;entryDx=0;entryDy=0;entryPerimeter=0;" edge="1" parent="WIyWlLk6GJQsqaUBKTNV-1" source="8jjc2kqJS15EgWJWvcIl-386" target="ZmzfmCcFbRjJiwDWbrTt-27">
          <mxGeometry relative="1" as="geometry" />
        </mxCell>
        <mxCell id="ZmzfmCcFbRjJiwDWbrTt-30" value="Annuler" style="edgeLabel;html=1;align=center;verticalAlign=middle;resizable=0;points=[];" vertex="1" connectable="0" parent="ZmzfmCcFbRjJiwDWbrTt-28">
          <mxGeometry x="-0.4474" relative="1" as="geometry">
            <mxPoint y="39" as="offset" />
          </mxGeometry>
        </mxCell>
        <mxCell id="8jjc2kqJS15EgWJWvcIl-386" value="&lt;div&gt;&lt;br&gt;&lt;/div&gt;&lt;div&gt;Créer demande&lt;/div&gt;" style="rounded=0;whiteSpace=wrap;html=1;fontFamily=Helvetica;fontSize=12;fontColor=#000000;align=center;fontStyle=1;verticalAlign=middle;" parent="WIyWlLk6GJQsqaUBKTNV-1" vertex="1">
          <mxGeometry x="140" y="-1100" width="130" height="60" as="geometry" />
        </mxCell>
        <mxCell id="3V38OUaqerDAB0xKx_UT-15" style="edgeStyle=orthogonalEdgeStyle;rounded=0;orthogonalLoop=1;jettySize=auto;html=1;exitX=1;exitY=0.5;exitDx=0;exitDy=0;entryX=0;entryY=0.5;entryDx=0;entryDy=0;" parent="WIyWlLk6GJQsqaUBKTNV-1" source="8jjc2kqJS15EgWJWvcIl-387" target="3V38OUaqerDAB0xKx_UT-13" edge="1">
          <mxGeometry relative="1" as="geometry" />
        </mxCell>
        <mxCell id="8jjc2kqJS15EgWJWvcIl-387" value="&lt;div&gt;&lt;br&gt;&lt;/div&gt;&lt;div&gt;Signer demande&lt;/div&gt;" style="rounded=0;whiteSpace=wrap;html=1;fontFamily=Helvetica;fontSize=12;fontColor=#000000;align=center;fontStyle=1" parent="WIyWlLk6GJQsqaUBKTNV-1" vertex="1">
          <mxGeometry x="480" y="-1100" width="130" height="60" as="geometry" />
        </mxCell>
        <mxCell id="8jjc2kqJS15EgWJWvcIl-391" value="Émettre avis sûreté" style="rounded=0;whiteSpace=wrap;html=1;fontFamily=Helvetica;fontSize=12;fontColor=#000000;align=center;" parent="WIyWlLk6GJQsqaUBKTNV-1" vertex="1">
          <mxGeometry x="3460" y="-940" width="80" height="60" as="geometry" />
        </mxCell>
        <mxCell id="8jjc2kqJS15EgWJWvcIl-456" value="Mesures compensatoires" style="rounded=0;whiteSpace=wrap;html=1;fillColor=#0050ef;fontColor=#ffffff;strokeColor=#001DBC;fontSize=8;" parent="WIyWlLk6GJQsqaUBKTNV-1" vertex="1">
          <mxGeometry x="3460" y="-880" width="80" height="20" as="geometry" />
        </mxCell>
        <mxCell id="8jjc2kqJS15EgWJWvcIl-393" value="" style="edgeStyle=orthogonalEdgeStyle;rounded=0;orthogonalLoop=1;jettySize=auto;html=1;" parent="WIyWlLk6GJQsqaUBKTNV-1" source="8jjc2kqJS15EgWJWvcIl-394" target="8jjc2kqJS15EgWJWvcIl-404" edge="1">
          <mxGeometry relative="1" as="geometry" />
        </mxCell>
        <mxCell id="8jjc2kqJS15EgWJWvcIl-394" value="Analyser risques" style="rounded=0;whiteSpace=wrap;html=1;fontFamily=Helvetica;fontSize=12;fontColor=#000000;align=center;" parent="WIyWlLk6GJQsqaUBKTNV-1" vertex="1">
          <mxGeometry x="3460" y="-820" width="80" height="60" as="geometry" />
        </mxCell>
        <mxCell id="8jjc2kqJS15EgWJWvcIl-395" value="" style="edgeStyle=orthogonalEdgeStyle;rounded=0;orthogonalLoop=1;jettySize=auto;html=1;" parent="WIyWlLk6GJQsqaUBKTNV-1" source="8jjc2kqJS15EgWJWvcIl-396" target="8jjc2kqJS15EgWJWvcIl-397" edge="1">
          <mxGeometry relative="1" as="geometry" />
        </mxCell>
        <mxCell id="8jjc2kqJS15EgWJWvcIl-396" value="" style="points=[[0.25,0.25,0],[0.5,0,0],[0.75,0.25,0],[1,0.5,0],[0.75,0.75,0],[0.5,1,0],[0.25,0.75,0],[0,0.5,0]];shape=mxgraph.bpmn.gateway2;html=1;verticalLabelPosition=bottom;labelBackgroundColor=#ffffff;verticalAlign=top;align=center;perimeter=rhombusPerimeter;outlineConnect=0;outline=none;symbol=none;gwType=exclusive;" parent="WIyWlLk6GJQsqaUBKTNV-1" vertex="1">
          <mxGeometry x="3670" y="-815" width="50" height="50" as="geometry" />
        </mxCell>
        <mxCell id="8jjc2kqJS15EgWJWvcIl-397" value="Demander expertise" style="rounded=0;whiteSpace=wrap;html=1;fontFamily=Helvetica;fontSize=12;fontColor=#000000;align=center;" parent="WIyWlLk6GJQsqaUBKTNV-1" vertex="1">
          <mxGeometry x="3760" y="-820" width="80" height="60" as="geometry" />
        </mxCell>
        <mxCell id="8jjc2kqJS15EgWJWvcIl-398" value="" style="edgeStyle=orthogonalEdgeStyle;rounded=0;orthogonalLoop=1;jettySize=auto;html=1;" parent="WIyWlLk6GJQsqaUBKTNV-1" source="8jjc2kqJS15EgWJWvcIl-399" target="8jjc2kqJS15EgWJWvcIl-400" edge="1">
          <mxGeometry relative="1" as="geometry" />
        </mxCell>
        <mxCell id="8jjc2kqJS15EgWJWvcIl-399" value="Demander expertise" style="rounded=0;whiteSpace=wrap;html=1;fontFamily=Helvetica;fontSize=12;fontColor=#000000;align=center;" parent="WIyWlLk6GJQsqaUBKTNV-1" vertex="1">
          <mxGeometry x="3760" y="-710" width="80" height="60" as="geometry" />
        </mxCell>
        <mxCell id="8jjc2kqJS15EgWJWvcIl-400" value="" style="points=[[0.25,0.25,0],[0.5,0,0],[0.75,0.25,0],[1,0.5,0],[0.75,0.75,0],[0.5,1,0],[0.25,0.75,0],[0,0.5,0]];shape=mxgraph.bpmn.gateway2;html=1;verticalLabelPosition=bottom;labelBackgroundColor=#ffffff;verticalAlign=top;align=center;perimeter=rhombusPerimeter;outlineConnect=0;outline=none;symbol=none;gwType=exclusive;" parent="WIyWlLk6GJQsqaUBKTNV-1" vertex="1">
          <mxGeometry x="3870" y="-705" width="50" height="50" as="geometry" />
        </mxCell>
        <mxCell id="8jjc2kqJS15EgWJWvcIl-401" style="edgeStyle=orthogonalEdgeStyle;rounded=0;orthogonalLoop=1;jettySize=auto;html=1;exitX=0.5;exitY=1;exitDx=0;exitDy=0;exitPerimeter=0;entryX=0;entryY=0.5;entryDx=0;entryDy=0;" parent="WIyWlLk6GJQsqaUBKTNV-1" source="8jjc2kqJS15EgWJWvcIl-396" target="8jjc2kqJS15EgWJWvcIl-399" edge="1">
          <mxGeometry relative="1" as="geometry" />
        </mxCell>
        <mxCell id="8jjc2kqJS15EgWJWvcIl-402" style="edgeStyle=orthogonalEdgeStyle;rounded=0;orthogonalLoop=1;jettySize=auto;html=1;exitX=1;exitY=0.5;exitDx=0;exitDy=0;entryX=0.5;entryY=0;entryDx=0;entryDy=0;entryPerimeter=0;" parent="WIyWlLk6GJQsqaUBKTNV-1" source="8jjc2kqJS15EgWJWvcIl-397" target="8jjc2kqJS15EgWJWvcIl-400" edge="1">
          <mxGeometry relative="1" as="geometry" />
        </mxCell>
        <mxCell id="8jjc2kqJS15EgWJWvcIl-403" value="" style="edgeStyle=orthogonalEdgeStyle;rounded=0;orthogonalLoop=1;jettySize=auto;html=1;" parent="WIyWlLk6GJQsqaUBKTNV-1" source="8jjc2kqJS15EgWJWvcIl-404" target="8jjc2kqJS15EgWJWvcIl-396" edge="1">
          <mxGeometry relative="1" as="geometry" />
        </mxCell>
        <mxCell id="8jjc2kqJS15EgWJWvcIl-404" value="" style="points=[[0.25,0.25,0],[0.5,0,0],[0.75,0.25,0],[1,0.5,0],[0.75,0.75,0],[0.5,1,0],[0.25,0.75,0],[0,0.5,0]];shape=mxgraph.bpmn.gateway2;html=1;verticalLabelPosition=bottom;labelBackgroundColor=#ffffff;verticalAlign=top;align=center;perimeter=rhombusPerimeter;outlineConnect=0;outline=none;symbol=none;gwType=parallel;" parent="WIyWlLk6GJQsqaUBKTNV-1" vertex="1">
          <mxGeometry x="3580" y="-815" width="50" height="50" as="geometry" />
        </mxCell>
        <mxCell id="8jjc2kqJS15EgWJWvcIl-405" value="" style="edgeStyle=orthogonalEdgeStyle;rounded=0;orthogonalLoop=1;jettySize=auto;html=1;" parent="WIyWlLk6GJQsqaUBKTNV-1" source="8jjc2kqJS15EgWJWvcIl-406" target="8jjc2kqJS15EgWJWvcIl-407" edge="1">
          <mxGeometry relative="1" as="geometry" />
        </mxCell>
        <mxCell id="8jjc2kqJS15EgWJWvcIl-406" value="Signer" style="rounded=0;whiteSpace=wrap;html=1;fontFamily=Helvetica;fontSize=12;fontColor=#000000;align=center;" parent="WIyWlLk6GJQsqaUBKTNV-1" vertex="1">
          <mxGeometry x="4220" y="-825" width="80" height="60" as="geometry" />
        </mxCell>
        <mxCell id="8jjc2kqJS15EgWJWvcIl-407" value="" style="points=[[0.25,0.25,0],[0.5,0,0],[0.75,0.25,0],[1,0.5,0],[0.75,0.75,0],[0.5,1,0],[0.25,0.75,0],[0,0.5,0]];shape=mxgraph.bpmn.gateway2;html=1;verticalLabelPosition=bottom;labelBackgroundColor=#ffffff;verticalAlign=top;align=center;perimeter=rhombusPerimeter;outlineConnect=0;outline=none;symbol=none;gwType=parallel;" parent="WIyWlLk6GJQsqaUBKTNV-1" vertex="1">
          <mxGeometry x="4330" y="-820" width="50" height="50" as="geometry" />
        </mxCell>
        <mxCell id="8jjc2kqJS15EgWJWvcIl-408" value="" style="edgeStyle=orthogonalEdgeStyle;rounded=0;orthogonalLoop=1;jettySize=auto;html=1;" parent="WIyWlLk6GJQsqaUBKTNV-1" source="8jjc2kqJS15EgWJWvcIl-409" target="8jjc2kqJS15EgWJWvcIl-411" edge="1">
          <mxGeometry relative="1" as="geometry" />
        </mxCell>
        <mxCell id="8jjc2kqJS15EgWJWvcIl-409" value="" style="points=[[0.25,0.25,0],[0.5,0,0],[0.75,0.25,0],[1,0.5,0],[0.75,0.75,0],[0.5,1,0],[0.25,0.75,0],[0,0.5,0]];shape=mxgraph.bpmn.gateway2;html=1;verticalLabelPosition=bottom;labelBackgroundColor=#ffffff;verticalAlign=top;align=center;perimeter=rhombusPerimeter;outlineConnect=0;outline=none;symbol=none;gwType=parallel;" parent="WIyWlLk6GJQsqaUBKTNV-1" vertex="1">
          <mxGeometry x="4544" y="-820" width="50" height="50" as="geometry" />
        </mxCell>
        <mxCell id="8jjc2kqJS15EgWJWvcIl-410" value="" style="edgeStyle=orthogonalEdgeStyle;rounded=0;orthogonalLoop=1;jettySize=auto;html=1;" parent="WIyWlLk6GJQsqaUBKTNV-1" source="8jjc2kqJS15EgWJWvcIl-411" target="8jjc2kqJS15EgWJWvcIl-412" edge="1">
          <mxGeometry relative="1" as="geometry" />
        </mxCell>
        <mxCell id="8jjc2kqJS15EgWJWvcIl-411" value="Clôturer" style="rounded=0;whiteSpace=wrap;html=1;fontFamily=Helvetica;fontSize=12;fontColor=#000000;align=center;" parent="WIyWlLk6GJQsqaUBKTNV-1" vertex="1">
          <mxGeometry x="4640" y="-825" width="80" height="60" as="geometry" />
        </mxCell>
        <mxCell id="8jjc2kqJS15EgWJWvcIl-412" value="" style="points=[[0.145,0.145,0],[0.5,0,0],[0.855,0.145,0],[1,0.5,0],[0.855,0.855,0],[0.5,1,0],[0.145,0.855,0],[0,0.5,0]];shape=mxgraph.bpmn.event;html=1;verticalLabelPosition=bottom;labelBackgroundColor=#ffffff;verticalAlign=top;align=center;perimeter=ellipsePerimeter;outlineConnect=0;aspect=fixed;outline=end;symbol=terminate2;" parent="WIyWlLk6GJQsqaUBKTNV-1" vertex="1">
          <mxGeometry x="4770" y="-820" width="50" height="50" as="geometry" />
        </mxCell>
        <mxCell id="8jjc2kqJS15EgWJWvcIl-458" value="Mesures compensatoires" style="rounded=0;whiteSpace=wrap;html=1;fillColor=#0050ef;fontColor=#ffffff;strokeColor=#001DBC;fontSize=8;" parent="WIyWlLk6GJQsqaUBKTNV-1" vertex="1">
          <mxGeometry x="3460" y="-760" width="80" height="20" as="geometry" />
        </mxCell>
        <mxCell id="8jjc2kqJS15EgWJWvcIl-461" value="Mesures compensatoires" style="rounded=0;whiteSpace=wrap;html=1;fillColor=#0050ef;fontColor=#ffffff;strokeColor=#001DBC;fontSize=8;" parent="WIyWlLk6GJQsqaUBKTNV-1" vertex="1">
          <mxGeometry x="3760" y="-760" width="80" height="20" as="geometry" />
        </mxCell>
        <mxCell id="8jjc2kqJS15EgWJWvcIl-414" value="Prendre en compte interventions" style="rounded=0;whiteSpace=wrap;html=1;fontFamily=Helvetica;fontSize=12;fontColor=#000000;align=center;" parent="WIyWlLk6GJQsqaUBKTNV-1" vertex="1">
          <mxGeometry x="4050" y="-635" width="80" height="60" as="geometry" />
        </mxCell>
        <mxCell id="8jjc2kqJS15EgWJWvcIl-415" value="" style="edgeStyle=orthogonalEdgeStyle;rounded=0;orthogonalLoop=1;jettySize=auto;html=1;" parent="WIyWlLk6GJQsqaUBKTNV-1" source="8jjc2kqJS15EgWJWvcIl-416" target="8jjc2kqJS15EgWJWvcIl-419" edge="1">
          <mxGeometry relative="1" as="geometry" />
        </mxCell>
        <mxCell id="8jjc2kqJS15EgWJWvcIl-416" value="Saisir décision" style="rounded=0;whiteSpace=wrap;html=1;fontFamily=Helvetica;fontSize=12;fontColor=#000000;align=center;" parent="WIyWlLk6GJQsqaUBKTNV-1" vertex="1">
          <mxGeometry x="4050" y="-720" width="80" height="60" as="geometry" />
        </mxCell>
        <mxCell id="8jjc2kqJS15EgWJWvcIl-417" value="Signer" style="rounded=0;whiteSpace=wrap;html=1;fontFamily=Helvetica;fontSize=12;fontColor=#000000;align=center;" parent="WIyWlLk6GJQsqaUBKTNV-1" vertex="1">
          <mxGeometry x="4220" y="-720" width="80" height="60" as="geometry" />
        </mxCell>
        <mxCell id="8jjc2kqJS15EgWJWvcIl-418" value="" style="edgeStyle=orthogonalEdgeStyle;rounded=0;orthogonalLoop=1;jettySize=auto;html=1;" parent="WIyWlLk6GJQsqaUBKTNV-1" source="8jjc2kqJS15EgWJWvcIl-419" target="8jjc2kqJS15EgWJWvcIl-417" edge="1">
          <mxGeometry relative="1" as="geometry" />
        </mxCell>
        <mxCell id="8jjc2kqJS15EgWJWvcIl-419" value="" style="points=[[0.25,0.25,0],[0.5,0,0],[0.75,0.25,0],[1,0.5,0],[0.75,0.75,0],[0.5,1,0],[0.25,0.75,0],[0,0.5,0]];shape=mxgraph.bpmn.gateway2;html=1;verticalLabelPosition=bottom;labelBackgroundColor=#ffffff;verticalAlign=top;align=center;perimeter=rhombusPerimeter;outlineConnect=0;outline=none;symbol=none;gwType=parallel;" parent="WIyWlLk6GJQsqaUBKTNV-1" vertex="1">
          <mxGeometry x="4150" y="-715" width="50" height="50" as="geometry" />
        </mxCell>
        <mxCell id="8jjc2kqJS15EgWJWvcIl-420" value="Donner bon pour solde" style="rounded=0;whiteSpace=wrap;html=1;fontFamily=Helvetica;fontSize=12;fontColor=#000000;align=center;" parent="WIyWlLk6GJQsqaUBKTNV-1" vertex="1">
          <mxGeometry x="4420" y="-720" width="80" height="60" as="geometry" />
        </mxCell>
        <mxCell id="8jjc2kqJS15EgWJWvcIl-421" value="Rendre expertise" style="rounded=0;whiteSpace=wrap;html=1;fontFamily=Helvetica;fontSize=12;fontColor=#000000;align=center;" parent="WIyWlLk6GJQsqaUBKTNV-1" vertex="1">
          <mxGeometry x="3855" y="-520" width="80" height="60" as="geometry" />
        </mxCell>
        <mxCell id="8jjc2kqJS15EgWJWvcIl-422" value="Réaliser intervention" style="rounded=0;whiteSpace=wrap;html=1;fontFamily=Helvetica;fontSize=12;fontColor=#000000;align=center;" parent="WIyWlLk6GJQsqaUBKTNV-1" vertex="1">
          <mxGeometry x="3670" y="-400" width="80" height="60" as="geometry" />
        </mxCell>
        <mxCell id="8jjc2kqJS15EgWJWvcIl-423" value="Signer intervention" style="rounded=0;whiteSpace=wrap;html=1;fontFamily=Helvetica;fontSize=12;fontColor=#000000;align=center;" parent="WIyWlLk6GJQsqaUBKTNV-1" vertex="1">
          <mxGeometry x="3670" y="-280" width="80" height="60" as="geometry" />
        </mxCell>
        <mxCell id="8jjc2kqJS15EgWJWvcIl-424" value="" style="edgeStyle=orthogonalEdgeStyle;rounded=0;orthogonalLoop=1;jettySize=auto;html=1;" parent="WIyWlLk6GJQsqaUBKTNV-1" source="8jjc2kqJS15EgWJWvcIl-422" target="8jjc2kqJS15EgWJWvcIl-423" edge="1">
          <mxGeometry relative="1" as="geometry" />
        </mxCell>
        <mxCell id="8jjc2kqJS15EgWJWvcIl-425" value="" style="points=[[0.25,0.25,0],[0.5,0,0],[0.75,0.25,0],[1,0.5,0],[0.75,0.75,0],[0.5,1,0],[0.25,0.75,0],[0,0.5,0]];shape=mxgraph.bpmn.gateway2;html=1;verticalLabelPosition=bottom;labelBackgroundColor=#ffffff;verticalAlign=top;align=center;perimeter=rhombusPerimeter;outlineConnect=0;outline=none;symbol=none;gwType=parallel;" parent="WIyWlLk6GJQsqaUBKTNV-1" vertex="1">
          <mxGeometry x="3980" y="-275" width="50" height="50" as="geometry" />
        </mxCell>
        <mxCell id="8jjc2kqJS15EgWJWvcIl-426" value="Prendre en compte interventions" style="rounded=0;whiteSpace=wrap;html=1;fontFamily=Helvetica;fontSize=12;fontColor=#000000;align=center;" parent="WIyWlLk6GJQsqaUBKTNV-1" vertex="1">
          <mxGeometry x="4051" y="-280" width="80" height="60" as="geometry" />
        </mxCell>
        <mxCell id="8jjc2kqJS15EgWJWvcIl-427" value="" style="edgeStyle=orthogonalEdgeStyle;rounded=0;orthogonalLoop=1;jettySize=auto;html=1;" parent="WIyWlLk6GJQsqaUBKTNV-1" source="8jjc2kqJS15EgWJWvcIl-425" target="8jjc2kqJS15EgWJWvcIl-426" edge="1">
          <mxGeometry relative="1" as="geometry" />
        </mxCell>
        <mxCell id="8jjc2kqJS15EgWJWvcIl-428" value="" style="edgeStyle=orthogonalEdgeStyle;rounded=0;orthogonalLoop=1;jettySize=auto;html=1;" parent="WIyWlLk6GJQsqaUBKTNV-1" source="8jjc2kqJS15EgWJWvcIl-423" target="8jjc2kqJS15EgWJWvcIl-425" edge="1">
          <mxGeometry relative="1" as="geometry">
            <mxPoint x="3890" y="590" as="sourcePoint" />
            <mxPoint x="3990" y="590" as="targetPoint" />
          </mxGeometry>
        </mxCell>
        <mxCell id="8jjc2kqJS15EgWJWvcIl-429" style="edgeStyle=orthogonalEdgeStyle;rounded=0;orthogonalLoop=1;jettySize=auto;html=1;exitX=0.5;exitY=0;exitDx=0;exitDy=0;exitPerimeter=0;entryX=0;entryY=0.5;entryDx=0;entryDy=0;" parent="WIyWlLk6GJQsqaUBKTNV-1" source="8jjc2kqJS15EgWJWvcIl-425" target="8jjc2kqJS15EgWJWvcIl-416" edge="1">
          <mxGeometry relative="1" as="geometry" />
        </mxCell>
        <mxCell id="8jjc2kqJS15EgWJWvcIl-430" style="edgeStyle=orthogonalEdgeStyle;rounded=0;orthogonalLoop=1;jettySize=auto;html=1;exitX=0.5;exitY=0;exitDx=0;exitDy=0;exitPerimeter=0;entryX=0;entryY=0.5;entryDx=0;entryDy=0;" parent="WIyWlLk6GJQsqaUBKTNV-1" source="8jjc2kqJS15EgWJWvcIl-425" target="8jjc2kqJS15EgWJWvcIl-414" edge="1">
          <mxGeometry relative="1" as="geometry" />
        </mxCell>
        <mxCell id="8jjc2kqJS15EgWJWvcIl-462" value="Mise en oeuvre" style="rounded=0;whiteSpace=wrap;html=1;fillColor=#0050ef;fontColor=#ffffff;strokeColor=#001DBC;fontSize=8;" parent="WIyWlLk6GJQsqaUBKTNV-1" vertex="1">
          <mxGeometry x="3760" y="-740" width="80" height="20" as="geometry" />
        </mxCell>
        <mxCell id="8jjc2kqJS15EgWJWvcIl-436" style="edgeStyle=orthogonalEdgeStyle;rounded=0;orthogonalLoop=1;jettySize=auto;html=1;exitX=0.5;exitY=1;exitDx=0;exitDy=0;exitPerimeter=0;entryX=0;entryY=0.5;entryDx=0;entryDy=0;" parent="WIyWlLk6GJQsqaUBKTNV-1" source="8jjc2kqJS15EgWJWvcIl-404" target="8jjc2kqJS15EgWJWvcIl-422" edge="1">
          <mxGeometry relative="1" as="geometry" />
        </mxCell>
        <mxCell id="8jjc2kqJS15EgWJWvcIl-437" value="" style="edgeStyle=orthogonalEdgeStyle;rounded=0;orthogonalLoop=1;jettySize=auto;html=1;" parent="WIyWlLk6GJQsqaUBKTNV-1" source="8jjc2kqJS15EgWJWvcIl-400" target="8jjc2kqJS15EgWJWvcIl-421" edge="1">
          <mxGeometry relative="1" as="geometry" />
        </mxCell>
        <mxCell id="8jjc2kqJS15EgWJWvcIl-438" style="edgeStyle=orthogonalEdgeStyle;rounded=0;orthogonalLoop=1;jettySize=auto;html=1;exitX=0.5;exitY=0;exitDx=0;exitDy=0;exitPerimeter=0;entryX=0;entryY=0.5;entryDx=0;entryDy=0;" parent="WIyWlLk6GJQsqaUBKTNV-1" source="8jjc2kqJS15EgWJWvcIl-419" target="8jjc2kqJS15EgWJWvcIl-406" edge="1">
          <mxGeometry relative="1" as="geometry" />
        </mxCell>
        <mxCell id="8jjc2kqJS15EgWJWvcIl-439" style="edgeStyle=orthogonalEdgeStyle;rounded=0;orthogonalLoop=1;jettySize=auto;html=1;exitX=1;exitY=0.5;exitDx=0;exitDy=0;entryX=0.5;entryY=1;entryDx=0;entryDy=0;entryPerimeter=0;" parent="WIyWlLk6GJQsqaUBKTNV-1" source="8jjc2kqJS15EgWJWvcIl-417" target="8jjc2kqJS15EgWJWvcIl-407" edge="1">
          <mxGeometry relative="1" as="geometry" />
        </mxCell>
        <mxCell id="8jjc2kqJS15EgWJWvcIl-440" style="edgeStyle=orthogonalEdgeStyle;rounded=0;orthogonalLoop=1;jettySize=auto;html=1;exitX=1;exitY=0.5;exitDx=0;exitDy=0;exitPerimeter=0;entryX=0.5;entryY=0;entryDx=0;entryDy=0;" parent="WIyWlLk6GJQsqaUBKTNV-1" source="8jjc2kqJS15EgWJWvcIl-407" target="8jjc2kqJS15EgWJWvcIl-420" edge="1">
          <mxGeometry relative="1" as="geometry" />
        </mxCell>
        <mxCell id="8jjc2kqJS15EgWJWvcIl-441" style="edgeStyle=orthogonalEdgeStyle;rounded=0;orthogonalLoop=1;jettySize=auto;html=1;exitX=1;exitY=0.5;exitDx=0;exitDy=0;entryX=0.5;entryY=1;entryDx=0;entryDy=0;entryPerimeter=0;" parent="WIyWlLk6GJQsqaUBKTNV-1" source="8jjc2kqJS15EgWJWvcIl-420" target="8jjc2kqJS15EgWJWvcIl-409" edge="1">
          <mxGeometry relative="1" as="geometry" />
        </mxCell>
        <mxCell id="8jjc2kqJS15EgWJWvcIl-442" style="edgeStyle=orthogonalEdgeStyle;rounded=0;orthogonalLoop=1;jettySize=auto;html=1;exitX=1;exitY=0.5;exitDx=0;exitDy=0;entryX=0.5;entryY=0;entryDx=0;entryDy=0;entryPerimeter=0;" parent="WIyWlLk6GJQsqaUBKTNV-1" source="8jjc2kqJS15EgWJWvcIl-421" target="8jjc2kqJS15EgWJWvcIl-409" edge="1">
          <mxGeometry relative="1" as="geometry">
            <Array as="points">
              <mxPoint x="3960" y="-490" />
              <mxPoint x="3960" y="-910" />
              <mxPoint x="4569" y="-910" />
            </Array>
          </mxGeometry>
        </mxCell>
        <mxCell id="8jjc2kqJS15EgWJWvcIl-443" style="edgeStyle=orthogonalEdgeStyle;rounded=0;orthogonalLoop=1;jettySize=auto;html=1;exitX=1;exitY=0.5;exitDx=0;exitDy=0;entryX=0.5;entryY=0;entryDx=0;entryDy=0;entryPerimeter=0;" parent="WIyWlLk6GJQsqaUBKTNV-1" source="8jjc2kqJS15EgWJWvcIl-391" target="8jjc2kqJS15EgWJWvcIl-409" edge="1">
          <mxGeometry relative="1" as="geometry" />
        </mxCell>
        <mxCell id="8jjc2kqJS15EgWJWvcIl-444" style="edgeStyle=orthogonalEdgeStyle;rounded=0;orthogonalLoop=1;jettySize=auto;html=1;exitX=1;exitY=0.5;exitDx=0;exitDy=0;entryX=0.5;entryY=1;entryDx=0;entryDy=0;entryPerimeter=0;" parent="WIyWlLk6GJQsqaUBKTNV-1" source="8jjc2kqJS15EgWJWvcIl-426" target="8jjc2kqJS15EgWJWvcIl-409" edge="1">
          <mxGeometry relative="1" as="geometry" />
        </mxCell>
        <mxCell id="8jjc2kqJS15EgWJWvcIl-445" style="edgeStyle=orthogonalEdgeStyle;rounded=0;orthogonalLoop=1;jettySize=auto;html=1;exitX=1;exitY=0.5;exitDx=0;exitDy=0;entryX=0.5;entryY=1;entryDx=0;entryDy=0;entryPerimeter=0;" parent="WIyWlLk6GJQsqaUBKTNV-1" source="8jjc2kqJS15EgWJWvcIl-414" target="8jjc2kqJS15EgWJWvcIl-409" edge="1">
          <mxGeometry relative="1" as="geometry" />
        </mxCell>
        <mxCell id="8jjc2kqJS15EgWJWvcIl-469" value="Brouillon" style="rounded=1;whiteSpace=wrap;html=1;fillColor=#fa6800;fontColor=#000000;strokeColor=#C73500;" parent="WIyWlLk6GJQsqaUBKTNV-1" vertex="1">
          <mxGeometry x="40" y="-1082" width="64" height="24" as="geometry" />
        </mxCell>
        <mxCell id="8jjc2kqJS15EgWJWvcIl-472" style="edgeStyle=orthogonalEdgeStyle;rounded=0;orthogonalLoop=1;jettySize=auto;html=1;exitX=0.5;exitY=1;exitDx=0;exitDy=0;entryX=0.5;entryY=0;entryDx=0;entryDy=0;dashed=1;endArrow=none;startFill=0;" parent="WIyWlLk6GJQsqaUBKTNV-1" source="8jjc2kqJS15EgWJWvcIl-471" target="8jjc2kqJS15EgWJWvcIl-469" edge="1">
          <mxGeometry relative="1" as="geometry" />
        </mxCell>
        <mxCell id="8jjc2kqJS15EgWJWvcIl-471" value="&lt;div align=&quot;left&quot;&gt;Visible uniquement par son créateur&lt;/div&gt;" style="text;html=1;align=left;verticalAlign=middle;whiteSpace=wrap;rounded=0;fontSize=10;strokeColor=default;dashed=1;dashPattern=1 1;glass=0;perimeterSpacing=0;labelPadding=0;spacing=8;" parent="WIyWlLk6GJQsqaUBKTNV-1" vertex="1">
          <mxGeometry x="17" y="-1180" width="110" height="40" as="geometry" />
        </mxCell>
        <mxCell id="8jjc2kqJS15EgWJWvcIl-473" value="Nouveau" style="rounded=1;whiteSpace=wrap;html=1;fillColor=#fa6800;fontColor=#000000;strokeColor=#C73500;" parent="WIyWlLk6GJQsqaUBKTNV-1" vertex="1">
          <mxGeometry x="368" y="-1082" width="64" height="24" as="geometry" />
        </mxCell>
        <mxCell id="8jjc2kqJS15EgWJWvcIl-474" value="&lt;div&gt;Numéro de dossier attribué&lt;/div&gt;&lt;div&gt;Visible par tout le monde&lt;/div&gt;" style="text;html=1;align=left;verticalAlign=middle;whiteSpace=wrap;rounded=0;fontSize=10;strokeColor=default;dashed=1;dashPattern=1 1;glass=0;perimeterSpacing=0;labelPadding=0;spacing=8;" parent="WIyWlLk6GJQsqaUBKTNV-1" vertex="1">
          <mxGeometry x="345" y="-1210" width="110" height="70" as="geometry" />
        </mxCell>
        <mxCell id="8jjc2kqJS15EgWJWvcIl-475" style="edgeStyle=orthogonalEdgeStyle;rounded=0;orthogonalLoop=1;jettySize=auto;html=1;exitX=0.5;exitY=1;exitDx=0;exitDy=0;entryX=0.5;entryY=0;entryDx=0;entryDy=0;dashed=1;endArrow=none;startFill=0;" parent="WIyWlLk6GJQsqaUBKTNV-1" source="8jjc2kqJS15EgWJWvcIl-474" target="8jjc2kqJS15EgWJWvcIl-473" edge="1">
          <mxGeometry relative="1" as="geometry">
            <mxPoint x="160" y="-1120" as="sourcePoint" />
            <mxPoint x="160" y="-1062" as="targetPoint" />
          </mxGeometry>
        </mxCell>
        <mxCell id="3V38OUaqerDAB0xKx_UT-0" value="Demande" style="rounded=0;whiteSpace=wrap;html=1;fillColor=#0050ef;fontColor=#ffffff;strokeColor=none;fontSize=8;" parent="WIyWlLk6GJQsqaUBKTNV-1" vertex="1">
          <mxGeometry x="140" y="-1100" width="80" height="20" as="geometry" />
        </mxCell>
        <mxCell id="3V38OUaqerDAB0xKx_UT-1" style="edgeStyle=orthogonalEdgeStyle;rounded=0;orthogonalLoop=1;jettySize=auto;html=1;exitX=0.5;exitY=1;exitDx=0;exitDy=0;entryX=0.5;entryY=0;entryDx=0;entryDy=0;dashed=1;endArrow=none;startFill=0;" parent="WIyWlLk6GJQsqaUBKTNV-1" source="3V38OUaqerDAB0xKx_UT-2" edge="1">
          <mxGeometry relative="1" as="geometry">
            <mxPoint x="205" y="-1100" as="targetPoint" />
          </mxGeometry>
        </mxCell>
        <mxCell id="ZmzfmCcFbRjJiwDWbrTt-33" style="rounded=0;orthogonalLoop=1;jettySize=auto;html=1;exitX=0.5;exitY=0;exitDx=0;exitDy=0;entryX=0;entryY=0.5;entryDx=0;entryDy=0;dashed=1;endArrow=none;startFill=0;dashPattern=12 12;" edge="1" parent="WIyWlLk6GJQsqaUBKTNV-1" source="3V38OUaqerDAB0xKx_UT-2" target="3V38OUaqerDAB0xKx_UT-16">
          <mxGeometry relative="1" as="geometry" />
        </mxCell>
        <mxCell id="3V38OUaqerDAB0xKx_UT-2" value="&lt;div&gt;Objectif : Description de la modification, choix équipement(s) concerné, pré-analyse d&#39;impact.&lt;/div&gt;&lt;div&gt;Si équipement EIP, EDR, ESP ou ESPN, ou si impact EIP, doc, sûreté ou contrôle périodique =&amp;gt; la demande est réputée comme ayant un risque de sûreté.&lt;/div&gt;" style="text;html=1;align=left;verticalAlign=middle;whiteSpace=wrap;rounded=0;fontSize=10;strokeColor=default;dashed=1;dashPattern=1 1;glass=0;perimeterSpacing=0;labelPadding=0;spacing=8;" parent="WIyWlLk6GJQsqaUBKTNV-1" vertex="1">
          <mxGeometry x="80" y="-1320" width="250" height="92" as="geometry" />
        </mxCell>
        <mxCell id="3V38OUaqerDAB0xKx_UT-3" value="Demande" style="rounded=0;whiteSpace=wrap;html=1;fillColor=#0050ef;fontColor=#ffffff;strokeColor=none;fontSize=8;" parent="WIyWlLk6GJQsqaUBKTNV-1" vertex="1">
          <mxGeometry x="480" y="-1100" width="80" height="20" as="geometry" />
        </mxCell>
        <mxCell id="3V38OUaqerDAB0xKx_UT-4" value="Brouillon" style="rounded=1;whiteSpace=wrap;html=1;fillColor=#fa6800;fontColor=#000000;strokeColor=#C73500;" parent="WIyWlLk6GJQsqaUBKTNV-1" vertex="1">
          <mxGeometry x="-340" y="-1690" width="64" height="24" as="geometry" />
        </mxCell>
        <mxCell id="3V38OUaqerDAB0xKx_UT-6" value="Legende" style="text;html=1;whiteSpace=wrap;overflow=hidden;rounded=0;fontStyle=1;fontSize=14;" parent="WIyWlLk6GJQsqaUBKTNV-1" vertex="1">
          <mxGeometry x="-340" y="-1730" width="60" height="26" as="geometry" />
        </mxCell>
        <mxCell id="3V38OUaqerDAB0xKx_UT-7" value="Statut de la demande" style="text;html=1;align=left;verticalAlign=middle;whiteSpace=wrap;rounded=0;" parent="WIyWlLk6GJQsqaUBKTNV-1" vertex="1">
          <mxGeometry x="-260" y="-1693" width="120" height="30" as="geometry" />
        </mxCell>
        <mxCell id="3V38OUaqerDAB0xKx_UT-8" value="&lt;div&gt;Créer demande&lt;/div&gt;" style="rounded=0;whiteSpace=wrap;html=1;fontFamily=Helvetica;fontSize=12;fontColor=#000000;align=center;fontStyle=1;verticalAlign=middle;" parent="WIyWlLk6GJQsqaUBKTNV-1" vertex="1">
          <mxGeometry x="-340" y="-1610" width="70" height="40" as="geometry" />
        </mxCell>
        <mxCell id="3V38OUaqerDAB0xKx_UT-9" value="Activité métier (US)&amp;nbsp;obligatoire" style="text;html=1;align=left;verticalAlign=middle;whiteSpace=wrap;rounded=0;" parent="WIyWlLk6GJQsqaUBKTNV-1" vertex="1">
          <mxGeometry x="-260" y="-1605" width="210" height="30" as="geometry" />
        </mxCell>
        <mxCell id="3V38OUaqerDAB0xKx_UT-10" value="Demande" style="rounded=0;whiteSpace=wrap;html=1;fillColor=#0050ef;fontColor=#ffffff;strokeColor=none;fontSize=8;" parent="WIyWlLk6GJQsqaUBKTNV-1" vertex="1">
          <mxGeometry x="-340" y="-1491" width="70" height="20" as="geometry" />
        </mxCell>
        <mxCell id="3V38OUaqerDAB0xKx_UT-12" value="Ecran (étape de la demande)" style="text;html=1;align=left;verticalAlign=middle;whiteSpace=wrap;rounded=0;" parent="WIyWlLk6GJQsqaUBKTNV-1" vertex="1">
          <mxGeometry x="-260" y="-1496" width="180" height="30" as="geometry" />
        </mxCell>
        <mxCell id="3V38OUaqerDAB0xKx_UT-26" style="edgeStyle=orthogonalEdgeStyle;rounded=0;orthogonalLoop=1;jettySize=auto;html=1;exitX=1;exitY=0.5;exitDx=0;exitDy=0;entryX=0;entryY=0.5;entryDx=0;entryDy=0;" parent="WIyWlLk6GJQsqaUBKTNV-1" source="3V38OUaqerDAB0xKx_UT-13" target="3V38OUaqerDAB0xKx_UT-23" edge="1">
          <mxGeometry relative="1" as="geometry" />
        </mxCell>
        <mxCell id="3V38OUaqerDAB0xKx_UT-13" value="&lt;br&gt;&lt;div&gt;Identifier risques&lt;/div&gt;" style="rounded=0;whiteSpace=wrap;html=1;fontFamily=Helvetica;fontSize=12;fontColor=#000000;align=center;fontStyle=1" parent="WIyWlLk6GJQsqaUBKTNV-1" vertex="1">
          <mxGeometry x="650" y="-1100" width="130" height="60" as="geometry" />
        </mxCell>
        <mxCell id="3V38OUaqerDAB0xKx_UT-14" value="Analyse de risque" style="rounded=0;whiteSpace=wrap;html=1;fillColor=#0050ef;fontColor=#ffffff;strokeColor=none;fontSize=8;" parent="WIyWlLk6GJQsqaUBKTNV-1" vertex="1">
          <mxGeometry x="650" y="-1100" width="80" height="20" as="geometry" />
        </mxCell>
        <mxCell id="3V38OUaqerDAB0xKx_UT-16" value="Si la demande a un risque de sûreté, analyse du risque de sûreté obligatoire" style="shape=hexagon;perimeter=hexagonPerimeter2;whiteSpace=wrap;html=1;fixedSize=1;spacingLeft=16;spacingRight=16;fillColor=#d80073;fontColor=#ffffff;strokeColor=#A50040;" parent="WIyWlLk6GJQsqaUBKTNV-1" vertex="1">
          <mxGeometry x="340" y="-1410" width="220" height="50" as="geometry" />
        </mxCell>
        <mxCell id="3V38OUaqerDAB0xKx_UT-19" value="&lt;div&gt;&lt;br&gt;&lt;/div&gt;" style="shape=hexagon;perimeter=hexagonPerimeter2;whiteSpace=wrap;html=1;fixedSize=1;spacingLeft=16;spacingRight=16;fillColor=#d80073;fontColor=#ffffff;strokeColor=#A50040;" parent="WIyWlLk6GJQsqaUBKTNV-1" vertex="1">
          <mxGeometry x="-340" y="-1451" width="70" height="20" as="geometry" />
        </mxCell>
        <mxCell id="3V38OUaqerDAB0xKx_UT-20" value="Effet de bord" style="text;html=1;align=left;verticalAlign=middle;whiteSpace=wrap;rounded=0;" parent="WIyWlLk6GJQsqaUBKTNV-1" vertex="1">
          <mxGeometry x="-260" y="-1456" width="180" height="30" as="geometry" />
        </mxCell>
        <mxCell id="3V38OUaqerDAB0xKx_UT-21" value="&lt;div&gt;Objectif : identifier et caractériser les domaines de risque que la modification peut impliquer, ou justifier l&#39;absence de risque.&lt;/div&gt;" style="text;html=1;align=left;verticalAlign=middle;whiteSpace=wrap;rounded=0;fontSize=10;strokeColor=default;dashed=1;dashPattern=1 1;glass=0;perimeterSpacing=0;labelPadding=0;spacing=8;" parent="WIyWlLk6GJQsqaUBKTNV-1" vertex="1">
          <mxGeometry x="590" y="-1280" width="250" height="52" as="geometry" />
        </mxCell>
        <mxCell id="3V38OUaqerDAB0xKx_UT-22" style="edgeStyle=orthogonalEdgeStyle;rounded=0;orthogonalLoop=1;jettySize=auto;html=1;exitX=0.5;exitY=1;exitDx=0;exitDy=0;entryX=0.5;entryY=0;entryDx=0;entryDy=0;dashed=1;endArrow=none;startFill=0;" parent="WIyWlLk6GJQsqaUBKTNV-1" source="3V38OUaqerDAB0xKx_UT-21" target="3V38OUaqerDAB0xKx_UT-13" edge="1">
          <mxGeometry relative="1" as="geometry">
            <mxPoint x="360" y="-1022" as="targetPoint" />
            <mxPoint x="360" y="-1150" as="sourcePoint" />
          </mxGeometry>
        </mxCell>
        <mxCell id="3V38OUaqerDAB0xKx_UT-33" style="edgeStyle=orthogonalEdgeStyle;rounded=0;orthogonalLoop=1;jettySize=auto;html=1;exitX=1;exitY=0.5;exitDx=0;exitDy=0;entryX=0;entryY=0.5;entryDx=0;entryDy=0;" parent="WIyWlLk6GJQsqaUBKTNV-1" source="3V38OUaqerDAB0xKx_UT-23" target="3V38OUaqerDAB0xKx_UT-31" edge="1">
          <mxGeometry relative="1" as="geometry" />
        </mxCell>
        <mxCell id="ZmzfmCcFbRjJiwDWbrTt-7" style="edgeStyle=orthogonalEdgeStyle;rounded=0;orthogonalLoop=1;jettySize=auto;html=1;exitX=1;exitY=0.5;exitDx=0;exitDy=0;entryX=0;entryY=0.5;entryDx=0;entryDy=0;" edge="1" parent="WIyWlLk6GJQsqaUBKTNV-1" source="3V38OUaqerDAB0xKx_UT-23" target="ZmzfmCcFbRjJiwDWbrTt-5">
          <mxGeometry relative="1" as="geometry" />
        </mxCell>
        <mxCell id="3V38OUaqerDAB0xKx_UT-23" value="&lt;div&gt;&lt;br&gt;&lt;/div&gt;&lt;div&gt;Signer analyse de risque&lt;/div&gt;" style="rounded=0;whiteSpace=wrap;html=1;fontFamily=Helvetica;fontSize=12;fontColor=#000000;align=center;fontStyle=1" parent="WIyWlLk6GJQsqaUBKTNV-1" vertex="1">
          <mxGeometry x="820" y="-1100" width="130" height="60" as="geometry" />
        </mxCell>
        <mxCell id="3V38OUaqerDAB0xKx_UT-24" value="Analyse de risque" style="rounded=0;whiteSpace=wrap;html=1;fillColor=#0050ef;fontColor=#ffffff;strokeColor=none;fontSize=8;" parent="WIyWlLk6GJQsqaUBKTNV-1" vertex="1">
          <mxGeometry x="820" y="-1100" width="80" height="20" as="geometry" />
        </mxCell>
        <mxCell id="3V38OUaqerDAB0xKx_UT-27" value="Demandeur" style="shape=umlActor;verticalLabelPosition=bottom;verticalAlign=top;html=1;outlineConnect=0;" parent="WIyWlLk6GJQsqaUBKTNV-1" vertex="1">
          <mxGeometry x="-170" y="-1100" width="30" height="60" as="geometry" />
        </mxCell>
        <mxCell id="3V38OUaqerDAB0xKx_UT-30" value="Chef installation" style="shape=umlActor;verticalLabelPosition=bottom;verticalAlign=top;html=1;outlineConnect=0;" parent="WIyWlLk6GJQsqaUBKTNV-1" vertex="1">
          <mxGeometry x="-170" y="-880" width="30" height="60" as="geometry" />
        </mxCell>
        <mxCell id="ZmzfmCcFbRjJiwDWbrTt-2" style="edgeStyle=orthogonalEdgeStyle;rounded=0;orthogonalLoop=1;jettySize=auto;html=1;exitX=1;exitY=0.5;exitDx=0;exitDy=0;entryX=0;entryY=0.5;entryDx=0;entryDy=0;" edge="1" parent="WIyWlLk6GJQsqaUBKTNV-1" source="3V38OUaqerDAB0xKx_UT-31" target="ZmzfmCcFbRjJiwDWbrTt-0">
          <mxGeometry relative="1" as="geometry" />
        </mxCell>
        <mxCell id="ZmzfmCcFbRjJiwDWbrTt-21" style="edgeStyle=orthogonalEdgeStyle;rounded=0;orthogonalLoop=1;jettySize=auto;html=1;exitX=1;exitY=0.5;exitDx=0;exitDy=0;entryX=0;entryY=0.5;entryDx=0;entryDy=0;" edge="1" parent="WIyWlLk6GJQsqaUBKTNV-1" source="3V38OUaqerDAB0xKx_UT-31" target="ZmzfmCcFbRjJiwDWbrTt-16">
          <mxGeometry relative="1" as="geometry">
            <mxPoint x="1250" y="-700" as="targetPoint" />
            <Array as="points">
              <mxPoint x="1210" y="-840" />
              <mxPoint x="1210" y="-721" />
            </Array>
          </mxGeometry>
        </mxCell>
        <mxCell id="ZmzfmCcFbRjJiwDWbrTt-57" value="Par CI" style="edgeLabel;html=1;align=center;verticalAlign=middle;resizable=0;points=[];" vertex="1" connectable="0" parent="ZmzfmCcFbRjJiwDWbrTt-21">
          <mxGeometry x="0.6412" y="-1" relative="1" as="geometry">
            <mxPoint x="-27" y="1" as="offset" />
          </mxGeometry>
        </mxCell>
        <mxCell id="ZmzfmCcFbRjJiwDWbrTt-25" style="edgeStyle=orthogonalEdgeStyle;rounded=0;orthogonalLoop=1;jettySize=auto;html=1;exitX=1;exitY=0.5;exitDx=0;exitDy=0;entryX=0;entryY=0.5;entryDx=0;entryDy=0;" edge="1" parent="WIyWlLk6GJQsqaUBKTNV-1" source="3V38OUaqerDAB0xKx_UT-31" target="ZmzfmCcFbRjJiwDWbrTt-104">
          <mxGeometry relative="1" as="geometry">
            <mxPoint x="1210" y="-590" as="targetPoint" />
            <Array as="points">
              <mxPoint x="1210" y="-840" />
              <mxPoint x="1210" y="-611" />
            </Array>
          </mxGeometry>
        </mxCell>
        <mxCell id="ZmzfmCcFbRjJiwDWbrTt-58" value="Par plateau" style="edgeLabel;html=1;align=center;verticalAlign=middle;resizable=0;points=[];" vertex="1" connectable="0" parent="ZmzfmCcFbRjJiwDWbrTt-25">
          <mxGeometry x="0.7846" y="-5" relative="1" as="geometry">
            <mxPoint x="-22" y="-5" as="offset" />
          </mxGeometry>
        </mxCell>
        <mxCell id="3V38OUaqerDAB0xKx_UT-31" value="&lt;br&gt;&lt;div&gt;Analyser risques&lt;/div&gt;" style="rounded=0;whiteSpace=wrap;html=1;fontFamily=Helvetica;fontSize=12;fontColor=#000000;align=center;fontStyle=1" parent="WIyWlLk6GJQsqaUBKTNV-1" vertex="1">
          <mxGeometry x="1050" y="-870" width="130" height="60" as="geometry" />
        </mxCell>
        <mxCell id="3V38OUaqerDAB0xKx_UT-32" value="Mesures compensatoires" style="rounded=0;whiteSpace=wrap;html=1;fillColor=#0050ef;fontColor=#ffffff;strokeColor=none;fontSize=8;" parent="WIyWlLk6GJQsqaUBKTNV-1" vertex="1">
          <mxGeometry x="1050" y="-870" width="80" height="20" as="geometry" />
        </mxCell>
        <mxCell id="3V38OUaqerDAB0xKx_UT-34" value="&lt;div&gt;Objectif : valider et compléter l&#39;analyse de risque réalisée par le demandeur. Préciser la durée de validité de la modification et s&#39;il s&#39;agit d&#39;une modification répétitive&lt;/div&gt;" style="text;html=1;align=left;verticalAlign=middle;whiteSpace=wrap;rounded=0;fontSize=10;strokeColor=default;dashed=1;dashPattern=1 1;glass=0;perimeterSpacing=0;labelPadding=0;spacing=8;" parent="WIyWlLk6GJQsqaUBKTNV-1" vertex="1">
          <mxGeometry x="986" y="-1290" width="250" height="62" as="geometry" />
        </mxCell>
        <mxCell id="3V38OUaqerDAB0xKx_UT-35" style="edgeStyle=orthogonalEdgeStyle;rounded=0;orthogonalLoop=1;jettySize=auto;html=1;exitX=0.5;exitY=1;exitDx=0;exitDy=0;entryX=0.75;entryY=0;entryDx=0;entryDy=0;dashed=1;endArrow=none;startFill=0;" parent="WIyWlLk6GJQsqaUBKTNV-1" source="3V38OUaqerDAB0xKx_UT-34" target="3V38OUaqerDAB0xKx_UT-32" edge="1">
          <mxGeometry relative="1" as="geometry">
            <mxPoint x="760" y="-1002" as="targetPoint" />
            <mxPoint x="760" y="-1130" as="sourcePoint" />
          </mxGeometry>
        </mxCell>
        <mxCell id="ZmzfmCcFbRjJiwDWbrTt-26" style="edgeStyle=orthogonalEdgeStyle;rounded=0;orthogonalLoop=1;jettySize=auto;html=1;exitX=1;exitY=0.5;exitDx=0;exitDy=0;entryX=0;entryY=0.5;entryDx=0;entryDy=0;" edge="1" parent="WIyWlLk6GJQsqaUBKTNV-1" source="ZmzfmCcFbRjJiwDWbrTt-0" target="ZmzfmCcFbRjJiwDWbrTt-3">
          <mxGeometry relative="1" as="geometry" />
        </mxCell>
        <mxCell id="ZmzfmCcFbRjJiwDWbrTt-0" value="&lt;div&gt;&lt;br&gt;&lt;/div&gt;&lt;div&gt;Signer analyse de risque&lt;/div&gt;" style="rounded=0;whiteSpace=wrap;html=1;fontFamily=Helvetica;fontSize=12;fontColor=#000000;align=center;fontStyle=1" vertex="1" parent="WIyWlLk6GJQsqaUBKTNV-1">
          <mxGeometry x="1310" y="-870" width="130" height="60" as="geometry" />
        </mxCell>
        <mxCell id="ZmzfmCcFbRjJiwDWbrTt-1" value="Mesures compensatoires" style="rounded=0;whiteSpace=wrap;html=1;fillColor=#0050ef;fontColor=#ffffff;strokeColor=none;fontSize=8;" vertex="1" parent="WIyWlLk6GJQsqaUBKTNV-1">
          <mxGeometry x="1310" y="-870" width="80" height="20" as="geometry" />
        </mxCell>
        <mxCell id="ZmzfmCcFbRjJiwDWbrTt-64" style="edgeStyle=orthogonalEdgeStyle;rounded=0;orthogonalLoop=1;jettySize=auto;html=1;exitX=1;exitY=0.5;exitDx=0;exitDy=0;entryX=0.5;entryY=0;entryDx=0;entryDy=0;" edge="1" parent="WIyWlLk6GJQsqaUBKTNV-1" source="ZmzfmCcFbRjJiwDWbrTt-3" target="ZmzfmCcFbRjJiwDWbrTt-62">
          <mxGeometry relative="1" as="geometry" />
        </mxCell>
        <mxCell id="ZmzfmCcFbRjJiwDWbrTt-3" value="Attente intervention" style="rounded=1;whiteSpace=wrap;html=1;fillColor=#fa6800;fontColor=#000000;strokeColor=#C73500;" vertex="1" parent="WIyWlLk6GJQsqaUBKTNV-1">
          <mxGeometry x="1535" y="-852" width="130" height="24" as="geometry" />
        </mxCell>
        <mxCell id="ZmzfmCcFbRjJiwDWbrTt-4" value="Ingénieur sûreté" style="shape=umlActor;verticalLabelPosition=bottom;verticalAlign=top;html=1;outlineConnect=0;" vertex="1" parent="WIyWlLk6GJQsqaUBKTNV-1">
          <mxGeometry x="-170" y="-480" width="30" height="60" as="geometry" />
        </mxCell>
        <mxCell id="ZmzfmCcFbRjJiwDWbrTt-5" value="&lt;div&gt;&lt;br&gt;&lt;/div&gt;&lt;div&gt;Emettre&amp;nbsp;&lt;/div&gt;&lt;div&gt;avis de sûreté&lt;/div&gt;" style="rounded=0;whiteSpace=wrap;html=1;fontFamily=Helvetica;fontSize=12;fontColor=#000000;align=center;fontStyle=1;dashed=1;dashPattern=1 2;" vertex="1" parent="WIyWlLk6GJQsqaUBKTNV-1">
          <mxGeometry x="1050" y="-460" width="130" height="60" as="geometry" />
        </mxCell>
        <mxCell id="ZmzfmCcFbRjJiwDWbrTt-6" value="Mesures compensatoires" style="rounded=0;whiteSpace=wrap;html=1;fillColor=#0050ef;fontColor=#ffffff;strokeColor=none;fontSize=8;" vertex="1" parent="WIyWlLk6GJQsqaUBKTNV-1">
          <mxGeometry x="1050" y="-460" width="80" height="20" as="geometry" />
        </mxCell>
        <mxCell id="ZmzfmCcFbRjJiwDWbrTt-8" value="Si la demande a un risque de sûreté, avis de sûreté obligatoire" style="shape=hexagon;perimeter=hexagonPerimeter2;whiteSpace=wrap;html=1;fixedSize=1;spacingLeft=16;spacingRight=16;fillColor=#d80073;fontColor=#ffffff;strokeColor=#A50040;" vertex="1" parent="WIyWlLk6GJQsqaUBKTNV-1">
          <mxGeometry x="340" y="-1496" width="220" height="50" as="geometry" />
        </mxCell>
        <mxCell id="ZmzfmCcFbRjJiwDWbrTt-12" value="Plateau technique" style="shape=umlActor;verticalLabelPosition=bottom;verticalAlign=top;html=1;outlineConnect=0;" vertex="1" parent="WIyWlLk6GJQsqaUBKTNV-1">
          <mxGeometry x="-170" y="-635" width="30" height="60" as="geometry" />
        </mxCell>
        <mxCell id="ZmzfmCcFbRjJiwDWbrTt-50" style="edgeStyle=orthogonalEdgeStyle;rounded=0;orthogonalLoop=1;jettySize=auto;html=1;exitX=1;exitY=0.5;exitDx=0;exitDy=0;entryX=0;entryY=0.5;entryDx=0;entryDy=0;" edge="1" parent="WIyWlLk6GJQsqaUBKTNV-1" source="ZmzfmCcFbRjJiwDWbrTt-16" target="ZmzfmCcFbRjJiwDWbrTt-48">
          <mxGeometry relative="1" as="geometry" />
        </mxCell>
        <mxCell id="ZmzfmCcFbRjJiwDWbrTt-16" value="&lt;br&gt;&lt;div&gt;&lt;br&gt;&lt;/div&gt;&lt;div&gt;&lt;br&gt;&lt;/div&gt;&lt;div&gt;Demander avis d&#39;expert&lt;/div&gt;" style="rounded=0;whiteSpace=wrap;html=1;fontFamily=Helvetica;fontSize=12;fontColor=#000000;align=center;fontStyle=1;dashed=1;dashPattern=1 2;" vertex="1" parent="WIyWlLk6GJQsqaUBKTNV-1">
          <mxGeometry x="1310" y="-762" width="130" height="82" as="geometry" />
        </mxCell>
        <mxCell id="ZmzfmCcFbRjJiwDWbrTt-17" value="Mesures compensatoires" style="rounded=0;whiteSpace=wrap;html=1;fillColor=#0050ef;fontColor=#ffffff;strokeColor=none;fontSize=8;" vertex="1" parent="WIyWlLk6GJQsqaUBKTNV-1">
          <mxGeometry x="1310" y="-762" width="80" height="20" as="geometry" />
        </mxCell>
        <mxCell id="ZmzfmCcFbRjJiwDWbrTt-18" value="&lt;div&gt;Créer demande&lt;/div&gt;" style="rounded=0;whiteSpace=wrap;html=1;fontFamily=Helvetica;fontSize=12;fontColor=#000000;align=center;fontStyle=1;verticalAlign=middle;dashed=1;dashPattern=1 2;" vertex="1" parent="WIyWlLk6GJQsqaUBKTNV-1">
          <mxGeometry x="-340" y="-1550" width="70" height="40" as="geometry" />
        </mxCell>
        <mxCell id="ZmzfmCcFbRjJiwDWbrTt-19" value="Activité métier (US) facultative" style="text;html=1;align=left;verticalAlign=middle;whiteSpace=wrap;rounded=0;" vertex="1" parent="WIyWlLk6GJQsqaUBKTNV-1">
          <mxGeometry x="-260" y="-1545" width="210" height="30" as="geometry" />
        </mxCell>
        <mxCell id="ZmzfmCcFbRjJiwDWbrTt-51" style="edgeStyle=orthogonalEdgeStyle;rounded=0;orthogonalLoop=1;jettySize=auto;html=1;exitX=1;exitY=0.5;exitDx=0;exitDy=0;entryX=0;entryY=0.5;entryDx=0;entryDy=0;" edge="1" parent="WIyWlLk6GJQsqaUBKTNV-1" target="ZmzfmCcFbRjJiwDWbrTt-48">
          <mxGeometry relative="1" as="geometry">
            <mxPoint x="1439.9999999999995" y="-620" as="sourcePoint" />
          </mxGeometry>
        </mxCell>
        <mxCell id="ZmzfmCcFbRjJiwDWbrTt-54" style="rounded=0;orthogonalLoop=1;jettySize=auto;html=1;exitX=0.25;exitY=1;exitDx=0;exitDy=0;entryX=0;entryY=0.5;entryDx=0;entryDy=0;dashed=1;dashPattern=12 12;endArrow=none;startFill=0;" edge="1" parent="WIyWlLk6GJQsqaUBKTNV-1" target="ZmzfmCcFbRjJiwDWbrTt-53">
          <mxGeometry relative="1" as="geometry">
            <mxPoint x="1342.4999999999995" y="-590" as="sourcePoint" />
          </mxGeometry>
        </mxCell>
        <mxCell id="ZmzfmCcFbRjJiwDWbrTt-27" value="Demande supprimée" style="points=[[0.145,0.145,0],[0.5,0,0],[0.855,0.145,0],[1,0.5,0],[0.855,0.855,0],[0.5,1,0],[0.145,0.855,0],[0,0.5,0]];shape=mxgraph.bpmn.event;html=1;verticalLabelPosition=bottom;labelBackgroundColor=#ffffff;verticalAlign=top;align=center;perimeter=ellipsePerimeter;outlineConnect=0;aspect=fixed;outline=end;symbol=terminate2;" vertex="1" parent="WIyWlLk6GJQsqaUBKTNV-1">
          <mxGeometry x="345" y="-1030" width="50" height="50" as="geometry" />
        </mxCell>
        <mxCell id="ZmzfmCcFbRjJiwDWbrTt-31" value="&lt;div&gt;Annulée&lt;/div&gt;" style="rounded=1;whiteSpace=wrap;html=1;fillColor=#f8cecc;strokeColor=#b85450;" vertex="1" parent="WIyWlLk6GJQsqaUBKTNV-1">
          <mxGeometry x="-340" y="-1650" width="64" height="24" as="geometry" />
        </mxCell>
        <mxCell id="ZmzfmCcFbRjJiwDWbrTt-32" value="Statut terminal de la demande" style="text;html=1;align=left;verticalAlign=middle;whiteSpace=wrap;rounded=0;" vertex="1" parent="WIyWlLk6GJQsqaUBKTNV-1">
          <mxGeometry x="-260" y="-1653" width="170" height="30" as="geometry" />
        </mxCell>
        <mxCell id="ZmzfmCcFbRjJiwDWbrTt-34" style="rounded=0;orthogonalLoop=1;jettySize=auto;html=1;exitX=1;exitY=0.5;exitDx=0;exitDy=0;entryX=0.5;entryY=0;entryDx=0;entryDy=0;dashed=1;endArrow=none;startFill=0;dashPattern=12 12;" edge="1" parent="WIyWlLk6GJQsqaUBKTNV-1" source="3V38OUaqerDAB0xKx_UT-16" target="3V38OUaqerDAB0xKx_UT-21">
          <mxGeometry relative="1" as="geometry">
            <mxPoint x="690" y="-1305" as="sourcePoint" />
            <mxPoint x="825" y="-1370" as="targetPoint" />
          </mxGeometry>
        </mxCell>
        <mxCell id="ZmzfmCcFbRjJiwDWbrTt-35" style="rounded=0;orthogonalLoop=1;jettySize=auto;html=1;exitX=0.5;exitY=0;exitDx=0;exitDy=0;entryX=0;entryY=0.5;entryDx=0;entryDy=0;dashed=1;endArrow=none;startFill=0;dashPattern=12 12;" edge="1" parent="WIyWlLk6GJQsqaUBKTNV-1" source="3V38OUaqerDAB0xKx_UT-2" target="ZmzfmCcFbRjJiwDWbrTt-8">
          <mxGeometry relative="1" as="geometry">
            <mxPoint x="240" y="-1235" as="sourcePoint" />
            <mxPoint x="375" y="-1300" as="targetPoint" />
          </mxGeometry>
        </mxCell>
        <mxCell id="ZmzfmCcFbRjJiwDWbrTt-36" style="rounded=0;orthogonalLoop=1;jettySize=auto;html=1;exitX=1;exitY=0.5;exitDx=0;exitDy=0;entryX=0.5;entryY=0;entryDx=0;entryDy=0;dashed=1;endArrow=none;startFill=0;dashPattern=12 12;" edge="1" parent="WIyWlLk6GJQsqaUBKTNV-1" source="ZmzfmCcFbRjJiwDWbrTt-8" target="ZmzfmCcFbRjJiwDWbrTt-5">
          <mxGeometry relative="1" as="geometry">
            <mxPoint x="720" y="-1410" as="sourcePoint" />
            <mxPoint x="875" y="-1305" as="targetPoint" />
            <Array as="points">
              <mxPoint x="910" y="-1410" />
            </Array>
          </mxGeometry>
        </mxCell>
        <mxCell id="ZmzfmCcFbRjJiwDWbrTt-37" value="Annulée" style="rounded=1;whiteSpace=wrap;html=1;fillColor=#f8cecc;fontColor=default;strokeColor=#b85450;align=center;verticalAlign=middle;fontFamily=Helvetica;fontSize=12;" vertex="1" parent="WIyWlLk6GJQsqaUBKTNV-1">
          <mxGeometry x="1770" y="-1265" width="64" height="24" as="geometry" />
        </mxCell>
        <mxCell id="ZmzfmCcFbRjJiwDWbrTt-38" value="Demande annulée" style="points=[[0.145,0.145,0],[0.5,0,0],[0.855,0.145,0],[1,0.5,0],[0.855,0.855,0],[0.5,1,0],[0.145,0.855,0],[0,0.5,0]];shape=mxgraph.bpmn.event;html=1;verticalLabelPosition=bottom;labelBackgroundColor=#ffffff;verticalAlign=top;align=center;perimeter=ellipsePerimeter;outlineConnect=0;aspect=fixed;outline=end;symbol=terminate2;" vertex="1" parent="WIyWlLk6GJQsqaUBKTNV-1">
          <mxGeometry x="1870" y="-1278" width="50" height="50" as="geometry" />
        </mxCell>
        <mxCell id="ZmzfmCcFbRjJiwDWbrTt-39" value="&lt;div&gt;&lt;br&gt;&lt;/div&gt;&lt;div&gt;Annuler demande&lt;/div&gt;" style="rounded=0;whiteSpace=wrap;html=1;fontFamily=Helvetica;fontSize=12;fontColor=#000000;align=center;fontStyle=1" vertex="1" parent="WIyWlLk6GJQsqaUBKTNV-1">
          <mxGeometry x="1840" y="-1345" width="130" height="60" as="geometry" />
        </mxCell>
        <mxCell id="ZmzfmCcFbRjJiwDWbrTt-40" value="Demande" style="rounded=0;whiteSpace=wrap;html=1;fillColor=#0050ef;fontColor=#ffffff;strokeColor=none;fontSize=8;" vertex="1" parent="WIyWlLk6GJQsqaUBKTNV-1">
          <mxGeometry x="1840" y="-1345" width="80" height="20" as="geometry" />
        </mxCell>
        <mxCell id="ZmzfmCcFbRjJiwDWbrTt-41" value="Refusée" style="rounded=1;whiteSpace=wrap;html=1;fillColor=#f8cecc;fontColor=default;strokeColor=#b85450;align=center;verticalAlign=middle;fontFamily=Helvetica;fontSize=12;" vertex="1" parent="WIyWlLk6GJQsqaUBKTNV-1">
          <mxGeometry x="1530" y="-1265" width="64" height="24" as="geometry" />
        </mxCell>
        <mxCell id="ZmzfmCcFbRjJiwDWbrTt-42" value="Demande refusée" style="points=[[0.145,0.145,0],[0.5,0,0],[0.855,0.145,0],[1,0.5,0],[0.855,0.855,0],[0.5,1,0],[0.145,0.855,0],[0,0.5,0]];shape=mxgraph.bpmn.event;html=1;verticalLabelPosition=bottom;labelBackgroundColor=#ffffff;verticalAlign=top;align=center;perimeter=ellipsePerimeter;outlineConnect=0;aspect=fixed;outline=end;symbol=terminate2;" vertex="1" parent="WIyWlLk6GJQsqaUBKTNV-1">
          <mxGeometry x="1630" y="-1278" width="50" height="50" as="geometry" />
        </mxCell>
        <mxCell id="ZmzfmCcFbRjJiwDWbrTt-43" value="&lt;div&gt;&lt;br&gt;&lt;/div&gt;&lt;div&gt;Refuser demande&lt;/div&gt;" style="rounded=0;whiteSpace=wrap;html=1;fontFamily=Helvetica;fontSize=12;fontColor=#000000;align=center;fontStyle=1" vertex="1" parent="WIyWlLk6GJQsqaUBKTNV-1">
          <mxGeometry x="1600" y="-1345" width="130" height="60" as="geometry" />
        </mxCell>
        <mxCell id="ZmzfmCcFbRjJiwDWbrTt-44" value="Demande" style="rounded=0;whiteSpace=wrap;html=1;fillColor=#0050ef;fontColor=#ffffff;strokeColor=none;fontSize=8;" vertex="1" parent="WIyWlLk6GJQsqaUBKTNV-1">
          <mxGeometry x="1600" y="-1345" width="80" height="20" as="geometry" />
        </mxCell>
        <mxCell id="ZmzfmCcFbRjJiwDWbrTt-45" value="&lt;div&gt;Objectif : se prononcer sur les risques associées à la demande, définir des mesures compensatoires pour les mitiger, et se prononcer sur l&#39;accord de la modification et sa pérennisation&lt;/div&gt;" style="text;html=1;align=left;verticalAlign=middle;whiteSpace=wrap;rounded=0;fontSize=10;strokeColor=default;dashed=1;dashPattern=1 1;glass=0;perimeterSpacing=0;labelPadding=0;spacing=8;" vertex="1" parent="WIyWlLk6GJQsqaUBKTNV-1">
          <mxGeometry x="989" y="120" width="250" height="62" as="geometry" />
        </mxCell>
        <mxCell id="ZmzfmCcFbRjJiwDWbrTt-46" style="edgeStyle=orthogonalEdgeStyle;rounded=0;orthogonalLoop=1;jettySize=auto;html=1;exitX=0.5;exitY=1;exitDx=0;exitDy=0;entryX=0.5;entryY=0;entryDx=0;entryDy=0;dashed=1;endArrow=none;startFill=0;" edge="1" parent="WIyWlLk6GJQsqaUBKTNV-1" source="ZmzfmCcFbRjJiwDWbrTt-5" target="ZmzfmCcFbRjJiwDWbrTt-45">
          <mxGeometry relative="1" as="geometry">
            <mxPoint x="1160" y="-582" as="targetPoint" />
            <mxPoint x="1161" y="-940" as="sourcePoint" />
          </mxGeometry>
        </mxCell>
        <mxCell id="ZmzfmCcFbRjJiwDWbrTt-47" value="Expert" style="shape=umlActor;verticalLabelPosition=bottom;verticalAlign=top;html=1;outlineConnect=0;" vertex="1" parent="WIyWlLk6GJQsqaUBKTNV-1">
          <mxGeometry x="-170" y="-310" width="30" height="60" as="geometry" />
        </mxCell>
        <mxCell id="ZmzfmCcFbRjJiwDWbrTt-48" value="&lt;br&gt;&lt;div&gt;Rendre expertise&lt;/div&gt;" style="rounded=0;whiteSpace=wrap;html=1;fontFamily=Helvetica;fontSize=12;fontColor=#000000;align=center;fontStyle=1;" vertex="1" parent="WIyWlLk6GJQsqaUBKTNV-1">
          <mxGeometry x="1535" y="-300" width="130" height="60" as="geometry" />
        </mxCell>
        <mxCell id="ZmzfmCcFbRjJiwDWbrTt-49" value="Mesures compensatoires" style="rounded=0;whiteSpace=wrap;html=1;fillColor=#0050ef;fontColor=#ffffff;strokeColor=none;fontSize=8;" vertex="1" parent="WIyWlLk6GJQsqaUBKTNV-1">
          <mxGeometry x="1535" y="-300" width="80" height="20" as="geometry" />
        </mxCell>
        <mxCell id="ZmzfmCcFbRjJiwDWbrTt-55" style="rounded=0;orthogonalLoop=1;jettySize=auto;html=1;exitX=1;exitY=0.5;exitDx=0;exitDy=0;entryX=0.75;entryY=1;entryDx=0;entryDy=0;dashed=1;dashPattern=12 12;endArrow=none;startFill=0;" edge="1" parent="WIyWlLk6GJQsqaUBKTNV-1" source="ZmzfmCcFbRjJiwDWbrTt-53" target="ZmzfmCcFbRjJiwDWbrTt-48">
          <mxGeometry relative="1" as="geometry" />
        </mxCell>
        <mxCell id="ZmzfmCcFbRjJiwDWbrTt-53" value="&lt;div&gt;Si expertise demandée&lt;/div&gt;" style="shape=hexagon;perimeter=hexagonPerimeter2;whiteSpace=wrap;html=1;fixedSize=1;spacingLeft=16;spacingRight=16;fillColor=#d80073;fontColor=#ffffff;strokeColor=#A50040;" vertex="1" parent="WIyWlLk6GJQsqaUBKTNV-1">
          <mxGeometry x="1445" y="-210" width="130" height="50" as="geometry" />
        </mxCell>
        <mxCell id="ZmzfmCcFbRjJiwDWbrTt-56" style="rounded=0;orthogonalLoop=1;jettySize=auto;html=1;exitX=0.25;exitY=1;exitDx=0;exitDy=0;entryX=0;entryY=0.5;entryDx=0;entryDy=0;dashed=1;dashPattern=12 12;endArrow=none;startFill=0;" edge="1" parent="WIyWlLk6GJQsqaUBKTNV-1" source="ZmzfmCcFbRjJiwDWbrTt-16" target="ZmzfmCcFbRjJiwDWbrTt-53">
          <mxGeometry relative="1" as="geometry">
            <mxPoint x="1435" y="-300" as="sourcePoint" />
            <mxPoint x="1537" y="105" as="targetPoint" />
          </mxGeometry>
        </mxCell>
        <mxCell id="ZmzfmCcFbRjJiwDWbrTt-59" style="edgeStyle=orthogonalEdgeStyle;rounded=0;orthogonalLoop=1;jettySize=auto;html=1;exitX=1;exitY=0.25;exitDx=0;exitDy=0;entryX=0.75;entryY=0;entryDx=0;entryDy=0;" edge="1" parent="WIyWlLk6GJQsqaUBKTNV-1" source="ZmzfmCcFbRjJiwDWbrTt-16" target="ZmzfmCcFbRjJiwDWbrTt-16">
          <mxGeometry relative="1" as="geometry">
            <Array as="points">
              <mxPoint x="1440" y="-740" />
              <mxPoint x="1460" y="-740" />
              <mxPoint x="1460" y="-780" />
              <mxPoint x="1408" y="-780" />
            </Array>
          </mxGeometry>
        </mxCell>
        <mxCell id="ZmzfmCcFbRjJiwDWbrTt-61" value="Intervenant" style="shape=umlActor;verticalLabelPosition=bottom;verticalAlign=top;html=1;outlineConnect=0;" vertex="1" parent="WIyWlLk6GJQsqaUBKTNV-1">
          <mxGeometry x="-170" y="-140" width="30" height="60" as="geometry" />
        </mxCell>
        <mxCell id="ZmzfmCcFbRjJiwDWbrTt-70" style="edgeStyle=orthogonalEdgeStyle;rounded=0;orthogonalLoop=1;jettySize=auto;html=1;exitX=1;exitY=0.5;exitDx=0;exitDy=0;entryX=0;entryY=0.5;entryDx=0;entryDy=0;" edge="1" parent="WIyWlLk6GJQsqaUBKTNV-1" source="ZmzfmCcFbRjJiwDWbrTt-62" target="ZmzfmCcFbRjJiwDWbrTt-68">
          <mxGeometry relative="1" as="geometry" />
        </mxCell>
        <mxCell id="ZmzfmCcFbRjJiwDWbrTt-98" value="Dès la première intervention" style="edgeLabel;html=1;align=center;verticalAlign=middle;resizable=0;points=[];" vertex="1" connectable="0" parent="ZmzfmCcFbRjJiwDWbrTt-70">
          <mxGeometry x="-0.4345" y="3" relative="1" as="geometry">
            <mxPoint x="-3" y="20" as="offset" />
          </mxGeometry>
        </mxCell>
        <mxCell id="ZmzfmCcFbRjJiwDWbrTt-62" value="&lt;div&gt;&lt;br&gt;&lt;/div&gt;&lt;div&gt;Réaliser intervention&lt;/div&gt;" style="rounded=0;whiteSpace=wrap;html=1;fontFamily=Helvetica;fontSize=12;fontColor=#000000;align=center;fontStyle=1;" vertex="1" parent="WIyWlLk6GJQsqaUBKTNV-1">
          <mxGeometry x="1737" y="-150" width="130" height="60" as="geometry" />
        </mxCell>
        <mxCell id="ZmzfmCcFbRjJiwDWbrTt-63" value="Mise en oeuvre" style="rounded=0;whiteSpace=wrap;html=1;fillColor=#0050ef;fontColor=#ffffff;strokeColor=none;fontSize=8;" vertex="1" parent="WIyWlLk6GJQsqaUBKTNV-1">
          <mxGeometry x="1737" y="-150" width="80" height="20" as="geometry" />
        </mxCell>
        <mxCell id="ZmzfmCcFbRjJiwDWbrTt-65" value="&lt;div&gt;Chef de quart&lt;/div&gt;" style="shape=umlActor;verticalLabelPosition=bottom;verticalAlign=top;html=1;outlineConnect=0;" vertex="1" parent="WIyWlLk6GJQsqaUBKTNV-1">
          <mxGeometry x="-170" y="20" width="30" height="60" as="geometry" />
        </mxCell>
        <mxCell id="ZmzfmCcFbRjJiwDWbrTt-85" style="edgeStyle=orthogonalEdgeStyle;rounded=0;orthogonalLoop=1;jettySize=auto;html=1;exitX=1;exitY=0.5;exitDx=0;exitDy=0;entryX=0;entryY=0.5;entryDx=0;entryDy=0;" edge="1" parent="WIyWlLk6GJQsqaUBKTNV-1" source="ZmzfmCcFbRjJiwDWbrTt-68" target="ZmzfmCcFbRjJiwDWbrTt-82">
          <mxGeometry relative="1" as="geometry" />
        </mxCell>
        <mxCell id="ZmzfmCcFbRjJiwDWbrTt-96" style="edgeStyle=orthogonalEdgeStyle;rounded=0;orthogonalLoop=1;jettySize=auto;html=1;exitX=1;exitY=0.5;exitDx=0;exitDy=0;entryX=0;entryY=0.5;entryDx=0;entryDy=0;" edge="1" parent="WIyWlLk6GJQsqaUBKTNV-1" source="ZmzfmCcFbRjJiwDWbrTt-68" target="ZmzfmCcFbRjJiwDWbrTt-94">
          <mxGeometry relative="1" as="geometry">
            <Array as="points">
              <mxPoint x="2410" y="50" />
              <mxPoint x="2410" y="-600" />
              <mxPoint x="2435" y="-600" />
            </Array>
          </mxGeometry>
        </mxCell>
        <mxCell id="ZmzfmCcFbRjJiwDWbrTt-102" style="edgeStyle=orthogonalEdgeStyle;rounded=0;orthogonalLoop=1;jettySize=auto;html=1;exitX=1;exitY=0.5;exitDx=0;exitDy=0;entryX=0;entryY=0.5;entryDx=0;entryDy=0;" edge="1" parent="WIyWlLk6GJQsqaUBKTNV-1" source="ZmzfmCcFbRjJiwDWbrTt-68" target="ZmzfmCcFbRjJiwDWbrTt-100">
          <mxGeometry relative="1" as="geometry">
            <Array as="points">
              <mxPoint x="2410" y="50" />
              <mxPoint x="2410" y="-680" />
            </Array>
          </mxGeometry>
        </mxCell>
        <mxCell id="ZmzfmCcFbRjJiwDWbrTt-68" value="&lt;div&gt;&lt;br&gt;&lt;/div&gt;&lt;div&gt;Signer intervention&lt;/div&gt;" style="rounded=0;whiteSpace=wrap;html=1;fontFamily=Helvetica;fontSize=12;fontColor=#000000;align=center;fontStyle=1;" vertex="1" parent="WIyWlLk6GJQsqaUBKTNV-1">
          <mxGeometry x="1950" y="20" width="130" height="60" as="geometry" />
        </mxCell>
        <mxCell id="ZmzfmCcFbRjJiwDWbrTt-69" value="Mise en oeuvre" style="rounded=0;whiteSpace=wrap;html=1;fillColor=#0050ef;fontColor=#ffffff;strokeColor=none;fontSize=8;" vertex="1" parent="WIyWlLk6GJQsqaUBKTNV-1">
          <mxGeometry x="1950" y="20" width="80" height="20" as="geometry" />
        </mxCell>
        <mxCell id="ZmzfmCcFbRjJiwDWbrTt-71" style="edgeStyle=orthogonalEdgeStyle;rounded=0;orthogonalLoop=1;jettySize=auto;html=1;exitX=1;exitY=0.25;exitDx=0;exitDy=0;entryX=0.75;entryY=0;entryDx=0;entryDy=0;" edge="1" parent="WIyWlLk6GJQsqaUBKTNV-1" source="ZmzfmCcFbRjJiwDWbrTt-62" target="ZmzfmCcFbRjJiwDWbrTt-62">
          <mxGeometry relative="1" as="geometry">
            <Array as="points">
              <mxPoint x="1890" y="-135" />
              <mxPoint x="1890" y="-170" />
              <mxPoint x="1835" y="-170" />
            </Array>
          </mxGeometry>
        </mxCell>
        <mxCell id="ZmzfmCcFbRjJiwDWbrTt-72" style="edgeStyle=orthogonalEdgeStyle;rounded=0;orthogonalLoop=1;jettySize=auto;html=1;exitX=1;exitY=0.25;exitDx=0;exitDy=0;entryX=0.75;entryY=0;entryDx=0;entryDy=0;" edge="1" parent="WIyWlLk6GJQsqaUBKTNV-1" source="ZmzfmCcFbRjJiwDWbrTt-68" target="ZmzfmCcFbRjJiwDWbrTt-68">
          <mxGeometry relative="1" as="geometry">
            <Array as="points">
              <mxPoint x="2100" y="35" />
              <mxPoint x="2100" />
              <mxPoint x="2048" />
            </Array>
          </mxGeometry>
        </mxCell>
        <mxCell id="ZmzfmCcFbRjJiwDWbrTt-73" value="Mis en place" style="rounded=1;whiteSpace=wrap;html=1;fillColor=#fa6800;fontColor=#000000;strokeColor=#C73500;" vertex="1" parent="WIyWlLk6GJQsqaUBKTNV-1">
          <mxGeometry x="1850" y="-50" width="130" height="24" as="geometry" />
        </mxCell>
        <mxCell id="ZmzfmCcFbRjJiwDWbrTt-75" value="&lt;div&gt;Objectif : formuler des demandes d&#39;expertise dans des domaines précis et y affecter un expert(ou un autre profil pour le domaine &quot;autre&quot;).&lt;/div&gt;&lt;div&gt;Saisie réalisée sur l&#39;écran &quot;Mesures compensatoires tant que la demande est au statut &quot;nouveau&quot;, et sur l&#39;écran &quot;Devenir du changement&quot; sinon.&lt;/div&gt;" style="text;html=1;align=left;verticalAlign=middle;whiteSpace=wrap;rounded=0;fontSize=10;strokeColor=default;dashed=1;dashPattern=1 1;glass=0;perimeterSpacing=0;labelPadding=0;spacing=8;" vertex="1" parent="WIyWlLk6GJQsqaUBKTNV-1">
          <mxGeometry x="1268.5" y="120" width="213" height="110" as="geometry" />
        </mxCell>
        <mxCell id="ZmzfmCcFbRjJiwDWbrTt-76" style="edgeStyle=orthogonalEdgeStyle;rounded=0;orthogonalLoop=1;jettySize=auto;html=1;entryX=0.5;entryY=0;entryDx=0;entryDy=0;dashed=1;endArrow=none;startFill=0;exitX=0.5;exitY=1;exitDx=0;exitDy=0;" edge="1" parent="WIyWlLk6GJQsqaUBKTNV-1" target="ZmzfmCcFbRjJiwDWbrTt-75">
          <mxGeometry relative="1" as="geometry">
            <mxPoint x="1210" y="250" as="targetPoint" />
            <mxPoint x="1374.9999999999995" y="-590" as="sourcePoint" />
          </mxGeometry>
        </mxCell>
        <mxCell id="ZmzfmCcFbRjJiwDWbrTt-77" style="edgeStyle=orthogonalEdgeStyle;rounded=0;orthogonalLoop=1;jettySize=auto;html=1;dashed=1;endArrow=none;startFill=0;exitX=0.5;exitY=1;exitDx=0;exitDy=0;entryX=0.5;entryY=0;entryDx=0;entryDy=0;" edge="1" parent="WIyWlLk6GJQsqaUBKTNV-1" source="ZmzfmCcFbRjJiwDWbrTt-16">
          <mxGeometry relative="1" as="geometry">
            <mxPoint x="1374.9999999999995" y="-650" as="targetPoint" />
            <mxPoint x="1570" y="-450" as="sourcePoint" />
          </mxGeometry>
        </mxCell>
        <mxCell id="ZmzfmCcFbRjJiwDWbrTt-78" value="&lt;div&gt;Objectif : fournir un avis favorable ou défavorable à la pérennisation de la modification sur son domaine d&#39;expertise.&lt;/div&gt;&lt;div&gt;Toute demande d&#39;expertise doit être résolue pour permettre le solde de la demande.&lt;/div&gt;" style="text;html=1;align=left;verticalAlign=middle;whiteSpace=wrap;rounded=0;fontSize=10;strokeColor=default;dashed=1;dashPattern=1 1;glass=0;perimeterSpacing=0;labelPadding=0;spacing=8;" vertex="1" parent="WIyWlLk6GJQsqaUBKTNV-1">
          <mxGeometry x="1516" y="120" width="167" height="100" as="geometry" />
        </mxCell>
        <mxCell id="ZmzfmCcFbRjJiwDWbrTt-79" style="edgeStyle=orthogonalEdgeStyle;rounded=0;orthogonalLoop=1;jettySize=auto;html=1;entryX=0.5;entryY=0;entryDx=0;entryDy=0;dashed=1;endArrow=none;startFill=0;exitX=0.5;exitY=1;exitDx=0;exitDy=0;" edge="1" parent="WIyWlLk6GJQsqaUBKTNV-1" source="ZmzfmCcFbRjJiwDWbrTt-48" target="ZmzfmCcFbRjJiwDWbrTt-78">
          <mxGeometry relative="1" as="geometry">
            <mxPoint x="1520" y="580" as="targetPoint" />
            <mxPoint x="1520" y="-130" as="sourcePoint" />
          </mxGeometry>
        </mxCell>
        <mxCell id="ZmzfmCcFbRjJiwDWbrTt-81" value="En cours" style="rounded=1;whiteSpace=wrap;html=1;fillColor=#fa6800;fontColor=#000000;strokeColor=#C73500;" vertex="1" parent="WIyWlLk6GJQsqaUBKTNV-1">
          <mxGeometry x="2260" y="38" width="130" height="24" as="geometry" />
        </mxCell>
        <mxCell id="ZmzfmCcFbRjJiwDWbrTt-82" value="&lt;div&gt;&lt;br&gt;&lt;/div&gt;&lt;div&gt;Prendre en compte intervention&lt;/div&gt;" style="rounded=0;whiteSpace=wrap;html=1;fontFamily=Helvetica;fontSize=12;fontColor=#000000;align=center;fontStyle=1;dashed=1;dashPattern=1 2;" vertex="1" parent="WIyWlLk6GJQsqaUBKTNV-1">
          <mxGeometry x="2440" y="20" width="130" height="60" as="geometry" />
        </mxCell>
        <mxCell id="ZmzfmCcFbRjJiwDWbrTt-83" value="Mise en oeuvre" style="rounded=0;whiteSpace=wrap;html=1;fillColor=#0050ef;fontColor=#ffffff;strokeColor=none;fontSize=8;" vertex="1" parent="WIyWlLk6GJQsqaUBKTNV-1">
          <mxGeometry x="2440" y="20" width="80" height="20" as="geometry" />
        </mxCell>
        <mxCell id="ZmzfmCcFbRjJiwDWbrTt-84" style="edgeStyle=orthogonalEdgeStyle;rounded=0;orthogonalLoop=1;jettySize=auto;html=1;exitX=1;exitY=0.25;exitDx=0;exitDy=0;entryX=0.75;entryY=0;entryDx=0;entryDy=0;" edge="1" parent="WIyWlLk6GJQsqaUBKTNV-1" source="ZmzfmCcFbRjJiwDWbrTt-82" target="ZmzfmCcFbRjJiwDWbrTt-82">
          <mxGeometry relative="1" as="geometry">
            <Array as="points">
              <mxPoint x="2590" y="35" />
              <mxPoint x="2590" />
              <mxPoint x="2538" />
            </Array>
          </mxGeometry>
        </mxCell>
        <mxCell id="ZmzfmCcFbRjJiwDWbrTt-87" value="&lt;div&gt;Objectif : fournir la traçabilité et la preuve de la réalisation des interventions logicielles et mécaniques réalisées physiquement dans le cadre de la demande.&lt;/div&gt;&lt;div&gt;Une ligne par intervention, possible jusqu&#39;au bon pour solde. Au moins une intervention.&lt;/div&gt;" style="text;html=1;align=left;verticalAlign=middle;whiteSpace=wrap;rounded=0;fontSize=10;strokeColor=default;dashed=1;dashPattern=1 1;glass=0;perimeterSpacing=0;labelPadding=0;spacing=8;" vertex="1" parent="WIyWlLk6GJQsqaUBKTNV-1">
          <mxGeometry x="1695.5" y="120" width="213" height="90" as="geometry" />
        </mxCell>
        <mxCell id="ZmzfmCcFbRjJiwDWbrTt-88" style="edgeStyle=orthogonalEdgeStyle;rounded=0;orthogonalLoop=1;jettySize=auto;html=1;entryX=0.5;entryY=0;entryDx=0;entryDy=0;dashed=1;endArrow=none;startFill=0;exitX=0.5;exitY=1;exitDx=0;exitDy=0;" edge="1" parent="WIyWlLk6GJQsqaUBKTNV-1" source="ZmzfmCcFbRjJiwDWbrTt-62" target="ZmzfmCcFbRjJiwDWbrTt-87">
          <mxGeometry relative="1" as="geometry">
            <mxPoint x="1710" y="270" as="targetPoint" />
            <mxPoint x="1710" y="-90" as="sourcePoint" />
          </mxGeometry>
        </mxCell>
        <mxCell id="ZmzfmCcFbRjJiwDWbrTt-90" value="Chaque ligne d&#39;intervention doit être signée par le chef de quart" style="text;html=1;align=left;verticalAlign=middle;whiteSpace=wrap;rounded=0;fontSize=10;strokeColor=default;dashed=1;dashPattern=1 1;glass=0;perimeterSpacing=0;labelPadding=0;spacing=8;" vertex="1" parent="WIyWlLk6GJQsqaUBKTNV-1">
          <mxGeometry x="1960" y="120" width="110" height="70" as="geometry" />
        </mxCell>
        <mxCell id="ZmzfmCcFbRjJiwDWbrTt-91" style="edgeStyle=orthogonalEdgeStyle;rounded=0;orthogonalLoop=1;jettySize=auto;html=1;entryX=0.5;entryY=0;entryDx=0;entryDy=0;dashed=1;endArrow=none;startFill=0;exitX=0.5;exitY=1;exitDx=0;exitDy=0;" edge="1" parent="WIyWlLk6GJQsqaUBKTNV-1" source="ZmzfmCcFbRjJiwDWbrTt-68" target="ZmzfmCcFbRjJiwDWbrTt-90">
          <mxGeometry relative="1" as="geometry">
            <mxPoint x="1880" y="260" as="targetPoint" />
            <mxPoint x="1880" y="50" as="sourcePoint" />
          </mxGeometry>
        </mxCell>
        <mxCell id="ZmzfmCcFbRjJiwDWbrTt-92" value="10 signatures requises : une du chef de quart et une de son adjoint pour chacune des 5 équipes." style="text;html=1;align=left;verticalAlign=middle;whiteSpace=wrap;rounded=0;fontSize=10;strokeColor=default;dashed=1;dashPattern=1 1;glass=0;perimeterSpacing=0;labelPadding=0;spacing=8;" vertex="1" parent="WIyWlLk6GJQsqaUBKTNV-1">
          <mxGeometry x="2430" y="120" width="140" height="70" as="geometry" />
        </mxCell>
        <mxCell id="ZmzfmCcFbRjJiwDWbrTt-93" style="edgeStyle=orthogonalEdgeStyle;rounded=0;orthogonalLoop=1;jettySize=auto;html=1;entryX=0.5;entryY=0;entryDx=0;entryDy=0;dashed=1;endArrow=none;startFill=0;exitX=0.5;exitY=1;exitDx=0;exitDy=0;" edge="1" parent="WIyWlLk6GJQsqaUBKTNV-1" target="ZmzfmCcFbRjJiwDWbrTt-92">
          <mxGeometry relative="1" as="geometry">
            <mxPoint x="2365" y="260" as="targetPoint" />
            <mxPoint x="2500" y="80" as="sourcePoint" />
          </mxGeometry>
        </mxCell>
        <mxCell id="ZmzfmCcFbRjJiwDWbrTt-94" value="&lt;div&gt;&lt;br&gt;&lt;/div&gt;&lt;div&gt;Prendre en compte intervention&lt;/div&gt;" style="rounded=0;whiteSpace=wrap;html=1;fontFamily=Helvetica;fontSize=12;fontColor=#000000;align=center;fontStyle=1;" vertex="1" parent="WIyWlLk6GJQsqaUBKTNV-1">
          <mxGeometry x="2435" y="-631" width="130" height="60" as="geometry" />
        </mxCell>
        <mxCell id="ZmzfmCcFbRjJiwDWbrTt-95" value="Mise en oeuvre" style="rounded=0;whiteSpace=wrap;html=1;fillColor=#0050ef;fontColor=#ffffff;strokeColor=none;fontSize=8;" vertex="1" parent="WIyWlLk6GJQsqaUBKTNV-1">
          <mxGeometry x="2435" y="-631" width="80" height="20" as="geometry" />
        </mxCell>
        <mxCell id="ZmzfmCcFbRjJiwDWbrTt-99" value="&lt;div&gt;Dès la première&lt;/div&gt;&lt;div&gt;signature d&#39;intervention&lt;/div&gt;" style="edgeLabel;html=1;align=center;verticalAlign=middle;resizable=0;points=[];" vertex="1" connectable="0" parent="WIyWlLk6GJQsqaUBKTNV-1">
          <mxGeometry x="2180" y="50" as="geometry">
            <mxPoint x="-6" y="-1" as="offset" />
          </mxGeometry>
        </mxCell>
        <mxCell id="ZmzfmCcFbRjJiwDWbrTt-109" style="edgeStyle=orthogonalEdgeStyle;rounded=0;orthogonalLoop=1;jettySize=auto;html=1;exitX=0.75;exitY=0;exitDx=0;exitDy=0;entryX=0;entryY=0.25;entryDx=0;entryDy=0;dashed=1;dashPattern=1 1;" edge="1" parent="WIyWlLk6GJQsqaUBKTNV-1" source="ZmzfmCcFbRjJiwDWbrTt-100" target="ZmzfmCcFbRjJiwDWbrTt-103">
          <mxGeometry relative="1" as="geometry">
            <Array as="points">
              <mxPoint x="2533" y="-680" />
              <mxPoint x="2533" y="-800" />
              <mxPoint x="1280" y="-800" />
              <mxPoint x="1280" y="-735" />
            </Array>
          </mxGeometry>
        </mxCell>
        <mxCell id="ZmzfmCcFbRjJiwDWbrTt-110" value="&lt;div&gt;Si nouveau&lt;/div&gt;&lt;div&gt;besoin&lt;/div&gt;&lt;div&gt;expertise&lt;/div&gt;" style="edgeLabel;html=1;align=center;verticalAlign=middle;resizable=0;points=[];" vertex="1" connectable="0" parent="ZmzfmCcFbRjJiwDWbrTt-109">
          <mxGeometry x="-0.9003" y="-3" relative="1" as="geometry">
            <mxPoint x="-3" y="-36" as="offset" />
          </mxGeometry>
        </mxCell>
        <mxCell id="ZmzfmCcFbRjJiwDWbrTt-119" style="edgeStyle=orthogonalEdgeStyle;rounded=0;orthogonalLoop=1;jettySize=auto;html=1;exitX=1;exitY=0.25;exitDx=0;exitDy=0;entryX=0;entryY=0.5;entryDx=0;entryDy=0;" edge="1" parent="WIyWlLk6GJQsqaUBKTNV-1" source="ZmzfmCcFbRjJiwDWbrTt-100" target="ZmzfmCcFbRjJiwDWbrTt-117">
          <mxGeometry relative="1" as="geometry">
            <Array as="points">
              <mxPoint x="2620" y="-695" />
              <mxPoint x="2620" y="-900" />
            </Array>
          </mxGeometry>
        </mxCell>
        <mxCell id="ZmzfmCcFbRjJiwDWbrTt-126" value="&lt;div&gt;Dès décision&lt;/div&gt;&lt;div&gt;&amp;nbsp;saisie&lt;/div&gt;" style="edgeLabel;html=1;align=center;verticalAlign=middle;resizable=0;points=[];" vertex="1" connectable="0" parent="ZmzfmCcFbRjJiwDWbrTt-119">
          <mxGeometry x="0.2506" y="-2" relative="1" as="geometry">
            <mxPoint x="-47" y="83" as="offset" />
          </mxGeometry>
        </mxCell>
        <mxCell id="ZmzfmCcFbRjJiwDWbrTt-100" value="&lt;div&gt;&lt;br&gt;&lt;/div&gt;&lt;div&gt;Saisir décision&lt;/div&gt;" style="rounded=0;whiteSpace=wrap;html=1;fontFamily=Helvetica;fontSize=12;fontColor=#000000;align=center;fontStyle=1;" vertex="1" parent="WIyWlLk6GJQsqaUBKTNV-1">
          <mxGeometry x="2435" y="-710" width="130" height="60" as="geometry" />
        </mxCell>
        <mxCell id="ZmzfmCcFbRjJiwDWbrTt-111" style="edgeStyle=orthogonalEdgeStyle;rounded=0;orthogonalLoop=1;jettySize=auto;html=1;exitX=0.75;exitY=0;exitDx=0;exitDy=0;entryX=0.5;entryY=1;entryDx=0;entryDy=0;endArrow=none;startFill=0;dashed=1;" edge="1" parent="WIyWlLk6GJQsqaUBKTNV-1" source="ZmzfmCcFbRjJiwDWbrTt-101" target="ZmzfmCcFbRjJiwDWbrTt-108">
          <mxGeometry relative="1" as="geometry" />
        </mxCell>
        <mxCell id="ZmzfmCcFbRjJiwDWbrTt-101" value="Devenir du changement" style="rounded=0;whiteSpace=wrap;html=1;fillColor=#0050ef;fontColor=#ffffff;strokeColor=none;fontSize=8;" vertex="1" parent="WIyWlLk6GJQsqaUBKTNV-1">
          <mxGeometry x="2435" y="-710" width="80" height="20" as="geometry" />
        </mxCell>
        <mxCell id="ZmzfmCcFbRjJiwDWbrTt-103" value="Devenir du changement" style="rounded=0;whiteSpace=wrap;html=1;fillColor=#0050ef;fontColor=#ffffff;strokeColor=none;fontSize=8;" vertex="1" parent="WIyWlLk6GJQsqaUBKTNV-1">
          <mxGeometry x="1310" y="-740" width="80" height="20" as="geometry" />
        </mxCell>
        <mxCell id="ZmzfmCcFbRjJiwDWbrTt-104" value="&lt;br&gt;&lt;div&gt;&lt;br&gt;&lt;/div&gt;&lt;div&gt;&lt;br&gt;&lt;/div&gt;&lt;div&gt;Demander avis d&#39;expert&lt;/div&gt;" style="rounded=0;whiteSpace=wrap;html=1;fontFamily=Helvetica;fontSize=12;fontColor=#000000;align=center;fontStyle=1;dashed=1;dashPattern=1 2;" vertex="1" parent="WIyWlLk6GJQsqaUBKTNV-1">
          <mxGeometry x="1310" y="-652" width="130" height="82" as="geometry" />
        </mxCell>
        <mxCell id="ZmzfmCcFbRjJiwDWbrTt-105" value="Mesures compensatoires" style="rounded=0;whiteSpace=wrap;html=1;fillColor=#0050ef;fontColor=#ffffff;strokeColor=none;fontSize=8;" vertex="1" parent="WIyWlLk6GJQsqaUBKTNV-1">
          <mxGeometry x="1310" y="-652" width="80" height="20" as="geometry" />
        </mxCell>
        <mxCell id="ZmzfmCcFbRjJiwDWbrTt-106" value="Devenir du changement" style="rounded=0;whiteSpace=wrap;html=1;fillColor=#0050ef;fontColor=#ffffff;strokeColor=none;fontSize=8;" vertex="1" parent="WIyWlLk6GJQsqaUBKTNV-1">
          <mxGeometry x="1310" y="-630" width="80" height="20" as="geometry" />
        </mxCell>
        <mxCell id="ZmzfmCcFbRjJiwDWbrTt-107" style="edgeStyle=orthogonalEdgeStyle;rounded=0;orthogonalLoop=1;jettySize=auto;html=1;exitX=1;exitY=0.25;exitDx=0;exitDy=0;entryX=0.75;entryY=0;entryDx=0;entryDy=0;" edge="1" parent="WIyWlLk6GJQsqaUBKTNV-1" source="ZmzfmCcFbRjJiwDWbrTt-104" target="ZmzfmCcFbRjJiwDWbrTt-104">
          <mxGeometry relative="1" as="geometry">
            <Array as="points">
              <mxPoint x="1450" y="-631" />
              <mxPoint x="1450" y="-670" />
              <mxPoint x="1408" y="-670" />
            </Array>
          </mxGeometry>
        </mxCell>
        <mxCell id="ZmzfmCcFbRjJiwDWbrTt-108" value="Objectif : saisir la décision prise sur la pérénnisation de la modification." style="text;html=1;align=left;verticalAlign=middle;whiteSpace=wrap;rounded=0;fontSize=10;strokeColor=default;dashed=1;dashPattern=1 1;glass=0;perimeterSpacing=0;labelPadding=0;spacing=8;" vertex="1" parent="WIyWlLk6GJQsqaUBKTNV-1">
          <mxGeometry x="2425" y="-1300" width="140" height="70" as="geometry" />
        </mxCell>
        <mxCell id="ZmzfmCcFbRjJiwDWbrTt-115" value="&lt;div&gt;&lt;br&gt;&lt;/div&gt;&lt;div&gt;Prendre en compte intervention&lt;/div&gt;" style="rounded=0;whiteSpace=wrap;html=1;fontFamily=Helvetica;fontSize=12;fontColor=#000000;align=center;fontStyle=1;" vertex="1" parent="WIyWlLk6GJQsqaUBKTNV-1">
          <mxGeometry x="2850" y="-672" width="130" height="60" as="geometry" />
        </mxCell>
        <mxCell id="ZmzfmCcFbRjJiwDWbrTt-116" value="Mise en oeuvre" style="rounded=0;whiteSpace=wrap;html=1;fillColor=#0050ef;fontColor=#ffffff;strokeColor=none;fontSize=8;" vertex="1" parent="WIyWlLk6GJQsqaUBKTNV-1">
          <mxGeometry x="2850" y="-672" width="80" height="20" as="geometry" />
        </mxCell>
        <mxCell id="ZmzfmCcFbRjJiwDWbrTt-117" value="&lt;div&gt;&lt;br&gt;&lt;/div&gt;&lt;div&gt;Prendre en compte intervention&lt;/div&gt;" style="rounded=0;whiteSpace=wrap;html=1;fontFamily=Helvetica;fontSize=12;fontColor=#000000;align=center;fontStyle=1;" vertex="1" parent="WIyWlLk6GJQsqaUBKTNV-1">
          <mxGeometry x="2850" y="-930" width="130" height="60" as="geometry" />
        </mxCell>
        <mxCell id="ZmzfmCcFbRjJiwDWbrTt-118" value="Mise en oeuvre" style="rounded=0;whiteSpace=wrap;html=1;fillColor=#0050ef;fontColor=#ffffff;strokeColor=none;fontSize=8;" vertex="1" parent="WIyWlLk6GJQsqaUBKTNV-1">
          <mxGeometry x="2850" y="-930" width="80" height="20" as="geometry" />
        </mxCell>
        <mxCell id="ZmzfmCcFbRjJiwDWbrTt-120" style="edgeStyle=orthogonalEdgeStyle;rounded=0;orthogonalLoop=1;jettySize=auto;html=1;exitX=0.75;exitY=0;exitDx=0;exitDy=0;entryX=0;entryY=1;entryDx=0;entryDy=0;dashed=1;dashPattern=1 1;" edge="1" parent="WIyWlLk6GJQsqaUBKTNV-1" source="ZmzfmCcFbRjJiwDWbrTt-100" target="ZmzfmCcFbRjJiwDWbrTt-105">
          <mxGeometry relative="1" as="geometry">
            <mxPoint x="3303" y="-610" as="sourcePoint" />
            <mxPoint x="2080" y="-635" as="targetPoint" />
            <Array as="points">
              <mxPoint x="2533" y="-800" />
              <mxPoint x="1280" y="-800" />
              <mxPoint x="1280" y="-635" />
              <mxPoint x="1310" y="-635" />
            </Array>
          </mxGeometry>
        </mxCell>
        <mxCell id="ZmzfmCcFbRjJiwDWbrTt-128" style="edgeStyle=orthogonalEdgeStyle;rounded=0;orthogonalLoop=1;jettySize=auto;html=1;exitX=1;exitY=0.5;exitDx=0;exitDy=0;exitPerimeter=0;entryX=0;entryY=0.5;entryDx=0;entryDy=0;" edge="1" parent="WIyWlLk6GJQsqaUBKTNV-1" source="ZmzfmCcFbRjJiwDWbrTt-123" target="ZmzfmCcFbRjJiwDWbrTt-115">
          <mxGeometry relative="1" as="geometry" />
        </mxCell>
        <mxCell id="ZmzfmCcFbRjJiwDWbrTt-123" value="" style="points=[[0.25,0.25,0],[0.5,0,0],[0.75,0.25,0],[1,0.5,0],[0.75,0.75,0],[0.5,1,0],[0.25,0.75,0],[0,0.5,0]];shape=mxgraph.bpmn.gateway2;html=1;verticalLabelPosition=bottom;labelBackgroundColor=#ffffff;verticalAlign=top;align=center;perimeter=rhombusPerimeter;outlineConnect=0;outline=none;symbol=none;gwType=exclusive;" vertex="1" parent="WIyWlLk6GJQsqaUBKTNV-1">
          <mxGeometry x="2710" y="-667" width="50" height="50" as="geometry" />
        </mxCell>
        <mxCell id="ZmzfmCcFbRjJiwDWbrTt-124" style="edgeStyle=orthogonalEdgeStyle;rounded=0;orthogonalLoop=1;jettySize=auto;html=1;exitX=1;exitY=0.5;exitDx=0;exitDy=0;entryX=0.5;entryY=0;entryDx=0;entryDy=0;entryPerimeter=0;" edge="1" parent="WIyWlLk6GJQsqaUBKTNV-1" source="ZmzfmCcFbRjJiwDWbrTt-100" target="ZmzfmCcFbRjJiwDWbrTt-123">
          <mxGeometry relative="1" as="geometry">
            <Array as="points">
              <mxPoint x="2735" y="-680" />
            </Array>
          </mxGeometry>
        </mxCell>
        <mxCell id="ZmzfmCcFbRjJiwDWbrTt-125" style="edgeStyle=orthogonalEdgeStyle;rounded=0;orthogonalLoop=1;jettySize=auto;html=1;exitX=1;exitY=0.5;exitDx=0;exitDy=0;entryX=0.5;entryY=1;entryDx=0;entryDy=0;entryPerimeter=0;" edge="1" parent="WIyWlLk6GJQsqaUBKTNV-1" source="ZmzfmCcFbRjJiwDWbrTt-94" target="ZmzfmCcFbRjJiwDWbrTt-123">
          <mxGeometry relative="1" as="geometry">
            <Array as="points">
              <mxPoint x="2638" y="-600" />
              <mxPoint x="2735" y="-600" />
            </Array>
          </mxGeometry>
        </mxCell>
        <mxCell id="ZmzfmCcFbRjJiwDWbrTt-127" value="&lt;div&gt;Les deux&amp;nbsp;&lt;/div&gt;&lt;div&gt;conditions&lt;/div&gt;&lt;div&gt;sont requises&lt;/div&gt;" style="text;html=1;align=center;verticalAlign=middle;whiteSpace=wrap;rounded=0;" vertex="1" parent="WIyWlLk6GJQsqaUBKTNV-1">
          <mxGeometry x="2650" y="-657" width="60" height="30" as="geometry" />
        </mxCell>
      </root>
    </mxGraphModel>
  </diagram>
</mxfile>
